<?xml version="1.0" encoding="UTF-8"?>
<!DOCTYPE svg  PUBLIC '-//W3C//DTD SVG 1.1//EN'  'http://www.w3.org/Graphics/SVG/1.1/DTD/svg11.dtd'>
<svg version="1.1" xmlns="http://www.w3.org/2000/svg">
<defs>
<font id="Klavika-Bold" horiz-adv-x="274">
<font-face font-family="a" font-weight="700" ascent="750" bbox="-25 -217 939 876" cap-height="666" descent="-250" panose-1="2 0 8 3 5 0 0 2 0 4" underline-position="-133" underline-thickness="20" unicode-range="U+0020-00FE" units-per-em="1000" x-height="487"/>
<missing-glyph/>
<glyph glyph-name="space" horiz-adv-x="210" unicode=" "/>
<glyph d="M184 231h-84l-30 174v281h144v-281zM214 0h-144v166h144v-166z" glyph-name="exclam" horiz-adv-x="284" unicode="!"/>
<glyph d="M50 438v248h99v-248h-99zM230 438v248h99v-248h-99z" glyph-name="quotedbl" horiz-adv-x="379" unicode='"'/>
<glyph d="M392 0l8 157h-142l-8 -157h-103l8 157h-120l5 96h119l7 144h-122l5 96h122l8 153h103l-8 -153h142l8 153h103l-8 -153h114l-5 -96h-114l-7 -144h117l-5 -96h-116l-8 -157h-103zM269 397l-7 -144h142l7 144h-142z" glyph-name="numbersign" horiz-adv-x="678" unicode="#"/>
<glyph d="M191 -121v113q-78 6 -146 32l26 117q93 -27 159 -27q61 0 75 25q8 15 8 47q0 43 -14 56q-17 14 -81 27q-109 22 -141 65q-28 39 -28 136q0 116 66 156q38 22 102 28v115h115v-116q66 -5 113 -17l-15 -123q-77 17 -165 17q-54 0 -65 -19q-7 -14 -7 -44q0 -41 13 -52 t85 -29q114 -29 143 -70q22 -30 23 -109v-20q0 -110 -44 -151q-36 -33 -107 -42v-115h-115z" glyph-name="dollar" horiz-adv-x="502" unicode="$"/>
<glyph d="M356 457q0 -119 -104 -140q-25 -5 -56 -5q-146 0 -159 117q-2 13 -2 28v74q0 124 114 142q22 3 47 3q142 0 158 -111q2 -16 2 -34v-74zM245 539q0 34 -28 39q-9 2 -21 2q-43 0 -49 -27q-1 -6 -1 -14v-90q0 -34 31 -40q8 -1 19 -1q42 0 48 26q1 7 1 15v90zM253 26l268 650 l88 -35l-268 -651zM832 135q0 -119 -104 -140q-25 -5 -56 -5q-146 0 -159 117q-2 13 -2 28v74q0 124 114 142q22 3 47 3q142 0 158 -111q2 -16 2 -34v-74zM721 217q0 34 -28 39q-9 2 -21 2q-43 0 -49 -27q-1 -6 -1 -14v-90q0 -34 31 -40q8 -1 19 -1q42 0 48 26q1 7 1 15v90z " glyph-name="percent" horiz-adv-x="872" unicode="%"/>
<glyph d="M616 392v-121h-97v-245q-113 -36 -247 -36q-179 0 -207 123q-5 21 -5 43v54q0 99 74 133q2 1 3 1q-66 36 -66 123v42q2 166 212 167q116 0 217 -24l-18 -116q-94 19 -199 19q-67 -2 -68 -53v-49q2 -60 58 -61h343zM204 210v-37q0 -55 56 -64q9 -1 17 -1q60 0 106 11v152 h-100q-75 -6 -79 -61z" glyph-name="ampersand" horiz-adv-x="646" unicode="&amp;"/>
<glyph d="M50 438v248h99v-248h-99z" glyph-name="quotesingle" horiz-adv-x="199" unicode="'"/>
<glyph d="M316 -94l-106 -60q-155 192 -155 458q1 267 155 458l106 -60q-90 -148 -109 -285q-8 -54 -8 -113q0 -177 78 -329q17 -33 39 -69z" glyph-name="parenleft" horiz-adv-x="326" unicode="("/>
<glyph d="M116 -154l-106 60q90 148 109 285q8 54 8 113q0 177 -78 329q-17 33 -39 69l106 60q155 -192 155 -458q-1 -267 -155 -458z" glyph-name="parenright" horiz-adv-x="326" unicode=")"/>
<glyph d="M100 370l70 109h-130v67h132l-72 113l56 37l77 -120l77 120l56 -37l-73 -113h134v-67h-131l70 -109l-57 -36l-76 118l-76 -118z" glyph-name="asterisk" horiz-adv-x="467" unicode="*"/>
<glyph d="M462 188h-146v-148h-115v148h-146v110h146v149h115v-149h146v-110z" glyph-name="plus" horiz-adv-x="517" unicode="+"/>
<glyph d="M208 -10l-88 -139l-65 37l57 112h-48v166h144v-176z" glyph-name="comma" horiz-adv-x="273" unicode=","/>
<glyph d="M298 220h-258v120h258v-120z" glyph-name="hyphen" horiz-adv-x="338" unicode="-"/>
<glyph d="M209 0h-144v166h144v-166z" glyph-name="period" unicode="."/>
<glyph d="M422 676l-249 -793h-128l249 793h128z" glyph-name="slash" horiz-adv-x="462" unicode="/"/>
<glyph d="M497 479v-312q-2 -176 -221 -177q-220 1 -221 177v312q2 176 221 177q220 -1 221 -177zM199 459v-272q0 -51 29 -64q17 -7 48 -7q60 0 72 32q5 15 5 39v272q0 51 -29 64q-17 7 -48 7q-60 0 -72 -32q-5 -15 -5 -39z" glyph-name="zero" horiz-adv-x="552" unicode="0"/>
<glyph d="M319 0h-144v479l-113 -61l-62 119l189 109h130v-646z" glyph-name="one" horiz-adv-x="389" unicode="1"/>
<glyph d="M355 250q-69 -84 -107 -124h205v-126h-404v123q99 102 145 154q80 92 92 110q17 29 17 76v18q0 37 -43 45q-15 2 -36 2q-91 0 -165 -19l-19 121q101 26 191 26q162 0 201 -80q15 -32 15 -77v-26q0 -76 -12 -107q-16 -39 -80 -116z" glyph-name="two" horiz-adv-x="503" unicode="2"/>
<glyph d="M88 385h111q66 0 78 33q4 12 4 29v41q0 37 -27 46q-18 5 -54 5q-61 0 -138 -14l-15 113q86 18 166 18q153 0 193 -64q19 -33 19 -86v-47q-1 -92 -67 -133q66 -29 76 -89q3 -16 3 -34v-51q0 -103 -80 -139q-54 -23 -148 -23q-97 0 -164 22l15 111q72 -13 144 -13 q71 0 84 27q5 11 5 26v46q-8 51 -73 53h-132v123z" glyph-name="three" horiz-adv-x="487" unicode="3"/>
<glyph d="M532 137h-81v-137h-142v137h-294v125l247 384h189v-392h81v-117zM309 254v249l-153 -249h153z" glyph-name="four" horiz-adv-x="562" unicode="4"/>
<glyph d="M309 203q0 40 -22 51q-17 7 -54 9q-90 4 -159 5v378h365v-125h-221v-136q33 -1 90 -4q121 -7 140 -95q5 -21 5 -47v-71q-1 -105 -60 -143q-53 -35 -165 -35q-97 0 -178 25l21 116q73 -16 156 -16q66 0 78 31q4 12 4 30v27z" glyph-name="five" horiz-adv-x="498" unicode="5"/>
<glyph d="M261 -10q-177 0 -205 129q-6 29 -6 64v244q0 165 145 210q64 19 162 19q47 0 98 -8l-10 -118q-35 5 -68 5q-128 0 -162 -39q-21 -24 -21 -68v-49q50 15 110 15q135 0 162 -102q7 -30 7 -66v-43q0 -174 -171 -191q-20 -2 -41 -2zM261 114q56 0 65 37q3 11 3 25v44 q-2 49 -49 50q-47 0 -86 -18v-76q0 -47 30 -57q14 -5 37 -5z" glyph-name="six" horiz-adv-x="518" unicode="6"/>
<glyph d="M437 524l-215 -524h-148l213 519h-267v127h417v-122z" glyph-name="seven" horiz-adv-x="457" unicode="7"/>
<glyph d="M50 211q0 62 55 100q13 9 29 18q-63 41 -67 98q-1 7 -1 14v56q0 120 109 149q39 10 92 10q166 0 194 -104q7 -25 7 -55v-56q0 -59 -45 -95q-10 -9 -23 -17q72 -39 82 -91q2 -13 2 -27v-51q0 -110 -73 -146q-50 -24 -144 -24q-149 0 -193 66q-24 38 -24 104v51zM189 162 q0 -40 30 -49q17 -5 48 -5q65 0 75 32q3 10 3 22v33q0 29 -16 43q-17 13 -64 31q-64 -24 -73 -45q-3 -9 -3 -29v-33zM205 443q0 -28 17 -40q14 -10 47 -22q51 19 57 37q3 8 3 25v48q0 36 -28 44q-14 4 -34 4q-52 0 -60 -29q-2 -8 -2 -19v-48z" glyph-name="eight" horiz-adv-x="534" unicode="8"/>
<glyph d="M252 656q177 0 205 -129q6 -29 6 -64v-244q0 -165 -145 -210q-64 -19 -162 -19q-48 0 -98 8l8 118q48 -5 70 -5q129 0 163 41q20 24 20 66v49q-50 -15 -110 -15q-135 0 -162 102q-7 30 -7 66v43q0 174 171 191q20 2 41 2zM252 532q-56 0 -65 -37q-3 -11 -3 -25v-44 q2 -49 49 -50q47 0 86 18v76q0 47 -30 57q-14 5 -37 5z" glyph-name="nine" horiz-adv-x="513" unicode="9"/>
<glyph d="M209 0h-144v166h144v-166zM209 291h-144v166h144v-166z" glyph-name="colon" unicode=":"/>
<glyph d="M208 291h-144v166h144v-166zM208 -10l-88 -139l-65 37l57 112h-48v166h144v-176z" glyph-name="semicolon" horiz-adv-x="273" unicode=";"/>
<glyph d="M473 -10l-443 217v74l443 216l43 -85l-352 -168l352 -168z" glyph-name="less" horiz-adv-x="566" unicode="&lt;"/>
<glyph d="M470 300h-415v96h415v-96zM470 106h-415v96h415v-96z" glyph-name="equal" horiz-adv-x="525" unicode="="/>
<glyph d="M536 207l-443 -217l-43 86l352 168l-352 168l43 85l443 -216v-74z" glyph-name="greater" horiz-adv-x="566" unicode="&gt;"/>
<glyph d="M296 0h-144v166h144v-166zM243 228l-81 110q103 77 122 106q12 20 12 54q0 52 -44 64q-20 6 -50 6q-59 0 -147 -16l-20 124q99 20 183 20q163 0 204 -87q18 -40 18 -103q0 -81 -18 -116q-21 -42 -109 -110q-27 -21 -70 -52z" glyph-name="question" horiz-adv-x="485" unicode="?"/>
<glyph d="M536 100l26 -77q-71 -33 -165 -33q-173 0 -273 111q-84 94 -84 232q0 158 99 254q93 89 234 89q161 0 248 -103q61 -74 61 -171q0 -116 -69 -178q-49 -43 -121 -43q-63 0 -92 41q-5 7 -8 15q-42 -25 -100 -27q-66 9 -71 75q0 15 3 33l15 73q20 107 130 108q64 0 138 -33 l-42 -198q12 -9 34 -9q62 0 84 76q9 30 9 65q0 99 -75 153q-57 40 -144 40q-124 0 -191 -94q-49 -69 -49 -166q0 -139 100 -209q68 -48 161 -48q67 0 142 24zM394 309l25 106q-24 10 -58 10q-30 -2 -37 -33l-16 -71q-4 -32 26 -33q26 0 60 21z" glyph-name="at" horiz-adv-x="722" unicode="@"/>
<glyph d="M413 666l204 -666h-156l-36 130h-223l-36 -130h-156l203 666h200zM313 534l-77 -279h153z" glyph-name="A" horiz-adv-x="627" unicode="A"/>
<glyph d="M542 159q0 -114 -106 -147q-38 -12 -87 -12h-284v666h263q186 -7 190 -146v-68q-2 -73 -74 -105q61 -14 87 -70q11 -26 11 -53v-65zM368 440v58q-2 46 -60 47h-93v-152h93q52 0 59 38q1 5 1 9zM392 179v41q-2 55 -63 56h-114v-155h93q76 0 83 45q1 7 1 13z" glyph-name="B" horiz-adv-x="572" unicode="B"/>
<glyph d="M200 448v-230q0 -69 46 -85q20 -7 47 -7q80 0 172 16l21 -131q-100 -21 -193 -21q-185 0 -230 126q-13 35 -13 78v278q0 141 125 186q51 18 118 18q95 0 193 -21l-21 -131q-93 16 -172 16q-76 0 -89 -55q-4 -16 -4 -37z" glyph-name="C" horiz-adv-x="521" unicode="C"/>
<glyph d="M548 173q0 -100 -87 -145q-56 -28 -138 -28h-258v666h258q164 0 210 -102q15 -33 15 -71v-320zM398 214v238q0 59 -41 74q-21 7 -52 7h-90v-400h90q76 0 89 47q4 14 4 34z" glyph-name="D" horiz-adv-x="598" unicode="D"/>
<glyph d="M484 0h-419v666h419v-133h-269v-122h248v-133h-248v-145h269v-133z" glyph-name="E" horiz-adv-x="534" unicode="E"/>
<glyph d="M215 0h-150v666h423v-133h-273v-142h252v-133h-252v-258z" glyph-name="F" horiz-adv-x="518" unicode="F"/>
<glyph d="M524 22q-112 -32 -230 -32q-165 0 -221 104q-23 44 -23 100v278q0 131 112 180q56 24 132 24q104 0 213 -21l-18 -131q-103 16 -195 16q-86 0 -93 -73q-1 -9 -1 -18v-229q2 -94 94 -95q43 0 89 6v204h141v-313z" glyph-name="G" horiz-adv-x="584" unicode="G"/>
<glyph d="M580 0h-150v268h-215v-268h-150v666h150v-265h215v265h150v-666z" glyph-name="H" horiz-adv-x="645" unicode="H"/>
<glyph d="M220 0h-150v666h150v-666z" glyph-name="I" horiz-adv-x="290" unicode="I"/>
<glyph d="M73 -211l-89 106q65 53 75 73q6 13 6 32v666h150v-689q0 -67 -95 -150q-21 -18 -47 -38z" glyph-name="J" horiz-adv-x="275" unicode="J"/>
<glyph d="M65 0v666h150v-666h-150zM428 0l-194 340l180 326h169l-187 -326l201 -340h-169z" glyph-name="K" horiz-adv-x="617" unicode="K"/>
<glyph d="M479 0h-414v666h150v-533h264v-133z" glyph-name="L" horiz-adv-x="499" unicode="L"/>
<glyph d="M326 86l-116 284l-10 -370h-145l28 666h150l160 -424l160 424h150l28 -666h-145l-10 370l-116 -284h-134z" glyph-name="M" horiz-adv-x="786" unicode="M"/>
<glyph d="M426 0l-218 438v-438h-143v666h184l219 -459v459h143v-666h-185z" glyph-name="N" horiz-adv-x="676" unicode="N"/>
<glyph d="M566 472v-278q0 -104 -84 -160q-67 -44 -174 -44q-173 0 -233 107q-25 44 -25 97v278q0 104 84 160q67 44 174 44q173 0 233 -107q25 -44 25 -97zM416 207v252q-2 83 -108 84q-107 -1 -108 -84v-252q2 -83 108 -84q107 1 108 84z" glyph-name="O" horiz-adv-x="616" unicode="O"/>
<glyph d="M559 390q0 -147 -134 -178q-42 -10 -96 -10h-114v-202h-150v666h272q170 0 208 -102q14 -37 14 -87v-87zM409 405v58q0 52 -36 64q-18 6 -44 6h-114v-201h114q64 0 76 39q4 14 4 34z" glyph-name="P" horiz-adv-x="584" unicode="P"/>
<glyph d="M335 -176l-71 168q-149 13 -197 119q-17 39 -17 83v278q0 104 84 160q67 44 174 44q173 0 233 -107q25 -44 25 -97v-278q0 -104 -84 -160q-29 -18 -64 -29l53 -124zM416 207v252q-2 83 -108 84q-107 -1 -108 -84v-252q2 -83 108 -84q107 1 108 84z" glyph-name="Q" horiz-adv-x="616" unicode="Q"/>
<glyph d="M450 0l-147 207h-88v-207h-150v666h277q170 0 208 -102q14 -37 14 -87v-82q-1 -126 -97 -167l161 -228h-178zM414 410v53q0 53 -37 65q-17 5 -43 5h-119v-196h119q64 0 76 38q4 14 4 35z" glyph-name="R" horiz-adv-x="643" unicode="R"/>
<glyph d="M504 187q0 -110 -51 -152q-56 -45 -193 -45q-121 0 -215 43l25 116q103 -32 192 -32q68 0 83 23q9 16 9 48q0 44 -12 56q-18 17 -100 35q-114 25 -149 60q-33 34 -36 124v27q0 108 52 147t178 39q101 0 202 -22l-15 -126q-112 19 -185 19q-62 0 -75 -22q-7 -13 -7 -39 q0 -45 12 -57q13 -13 87 -31h1h1l1 -1h1h1h1l1 -1h2q124 -30 159 -68q28 -31 30 -107v-34z" glyph-name="S" horiz-adv-x="544" unicode="S"/>
<glyph d="M520 533h-179v-533h-150v533h-179v133h508v-133z" glyph-name="T" horiz-adv-x="532" unicode="T"/>
<glyph d="M412 666h150v-472q0 -113 -90 -167q-63 -37 -161 -37q-180 0 -233 117q-18 40 -18 87v472h150v-458q0 -74 74 -83q13 -2 27 -2q92 0 100 68q1 9 1 17v458z" glyph-name="U" horiz-adv-x="622" unicode="U"/>
<glyph d="M590 666l-188 -666h-214l-188 666h154l141 -530l141 530h154z" glyph-name="V" horiz-adv-x="590" unicode="V"/>
<glyph d="M939 666l-163 -666h-191l-112 506l-113 -506h-191l-164 666h148l113 -476l116 476h183l114 -476l112 476h148z" glyph-name="W" horiz-adv-x="944" unicode="W"/>
<glyph d="M585 666l-195 -328l202 -338h-157l-129 220l-129 -220h-157l201 338l-194 328h157l122 -210l122 210h157z" glyph-name="X" horiz-adv-x="612" unicode="X"/>
<glyph d="M564 666l-207 -474v-192h-150v192l-207 474h157l125 -309l125 309h157z" glyph-name="Y" horiz-adv-x="564" unicode="Y"/>
<glyph d="M511 543l-290 -420h295v-123h-466v122l293 421h-280v123h448v-123z" glyph-name="Z" horiz-adv-x="566" unicode="Z"/>
<glyph d="M299 -126h-224v916h224v-115h-80v-686h80v-115z" glyph-name="bracketleft" horiz-adv-x="319" unicode="["/>
<glyph d="M289 -117l-249 793h128l249 -793h-128z" glyph-name="backslash" horiz-adv-x="462" unicode="\"/>
<glyph d="M244 -126h-224v115h80v686h-80v115h224v-916z" glyph-name="bracketright" horiz-adv-x="319" unicode="]"/>
<glyph d="M431 419l-86 -52l-113 201l-113 -201l-84 52l151 267h92z" glyph-name="asciicircum" horiz-adv-x="466" unicode="^"/>
<glyph d="M445 -86h-446v76h446v-76z" glyph-name="underscore" horiz-adv-x="444" unicode="_"/>
<glyph d="M260 613l-50 -76q-71 39 -155 94l54 84q63 -47 151 -102z" glyph-name="grave" horiz-adv-x="310" unicode="`"/>
<glyph d="M444 0h-118l-10 31q-74 -41 -139 -41q-99 0 -121 96q-6 24 -6 52q0 105 78 129q28 8 67 8h105v37q0 45 -20 56q-19 11 -66 11q-61 0 -132 -14l-19 108q79 24 175 24q133 0 175 -51q31 -41 31 -135v-311zM300 119v56h-69q-37 0 -42 -22q-1 -6 -1 -13q8 -35 39 -38 q36 0 73 17z" glyph-name="a" horiz-adv-x="499" unicode="a"/>
<glyph d="M497 195q0 -115 -57 -160t-177 -45q-101 0 -198 16v680l144 20v-236q71 27 138 27q149 -2 150 -176v-126zM209 345v-228q22 -2 59 -2q72 0 83 50q2 13 2 29v126q-2 51 -52 52q-40 0 -92 -27z" glyph-name="b" horiz-adv-x="537" unicode="b"/>
<glyph d="M179 301v-115q0 -60 48 -70q14 -3 31 -3q48 0 100 12l18 -120q-67 -15 -118 -15q-158 0 -202 88q-21 43 -21 110v111q0 136 93 177q50 21 130 21q52 0 118 -15l-18 -120q-52 12 -100 12q-66 0 -77 -47q-2 -12 -2 -26z" glyph-name="c" horiz-adv-x="406" unicode="c"/>
<glyph d="M40 170v147q2 179 164 180q66 0 124 -14v203l144 20v-706h-113l-15 39q-65 -42 -135 -48q-8 -1 -15 -1q-130 0 -151 132q-3 23 -3 48zM328 153v207q-50 12 -92 12q-51 -2 -52 -55v-147q2 -54 52 -55q46 0 90 36q1 2 2 2z" glyph-name="d" horiz-adv-x="537" unicode="d"/>
<glyph d="M446 193h-262v-14q0 -52 34 -64q19 -7 54 -7q79 0 148 21l21 -108q-86 -31 -183 -31q-217 2 -218 198v114q2 194 209 195q174 0 194 -153q3 -23 3 -49v-102zM310 301v21q0 56 -47 61q-6 1 -13 1q-65 -2 -66 -62v-21h126z" glyph-name="e" horiz-adv-x="486" unicode="e"/>
<glyph d="M369 692l-18 -113q-35 7 -64 7q-42 0 -47 -27q-2 -10 -2 -25v-57h115l-10 -118h-105v-359h-144v359h-74v118h74v73q0 141 133 154q15 2 32 2q43 0 110 -14z" glyph-name="f" horiz-adv-x="369" unicode="f"/>
<glyph d="M35 279v59q3 151 178 159h21q43 0 83 -10h152v-68l-49 -18q11 -28 13 -63v-59q0 -107 -104 -141q-41 -14 -95 -14h-15q-20 -14 -21 -27q1 -17 16 -20q79 -9 121 -12q84 -7 106 -53q12 -26 12 -66q0 -104 -86 -135q-50 -18 -138 -18q-100 0 -194 25l21 105q83 -20 160 -20 q82 0 97 14q8 8 8 21q0 20 -21 24q-7 2 -17 3q-46 4 -124 12q-72 8 -91 37q-13 19 -13 51q1 47 42 89q-62 38 -62 125zM234 238q60 9 65 48v46q-2 50 -65 51q-64 -1 -65 -51v-46q0 -41 45 -47q10 -1 20 -1z" glyph-name="g" horiz-adv-x="484" unicode="g"/>
<glyph d="M493 0h-144v322q-2 34 -35 35q-36 0 -105 -36v-321h-144v686l142 20v-254q99 45 174 45q111 -2 112 -156v-341z" glyph-name="h" horiz-adv-x="553" unicode="h"/>
<glyph d="M209 548h-144v153h144v-153zM209 0h-144v487h144v-487z" glyph-name="i" unicode="i"/>
<glyph d="M204 548h-144v153h144v-153zM72 -207l-87 94q51 48 62 65q13 21 13 44v491h144v-510q0 -62 -82 -140q-21 -20 -50 -44z" glyph-name="j" horiz-adv-x="264" unicode="j"/>
<glyph d="M209 0h-144v686l144 20v-706zM228 245l124 242h154l-128 -242l134 -245h-154z" glyph-name="k" horiz-adv-x="527" unicode="k"/>
<glyph d="M209 0h-144v686l144 20v-706z" glyph-name="l" unicode="l"/>
<glyph d="M493 0h-144v322q-2 34 -35 35q-42 -1 -105 -35v-322h-144v487h107l15 -37q99 44 194 47q62 -1 89 -47q96 47 195 47q111 -2 112 -156v-341h-144v322q-2 34 -35 35q-42 -1 -105 -35v-322z" glyph-name="m" horiz-adv-x="837" unicode="m"/>
<glyph d="M493 0h-144v322q-2 34 -35 35q-42 -1 -105 -35v-322h-144v487h107l15 -37q99 44 194 47q111 -2 112 -156v-341z" glyph-name="n" horiz-adv-x="553" unicode="n"/>
<glyph d="M260 -10q-194 0 -217 156q-3 20 -3 41v113q0 161 150 191q33 6 70 6q194 0 217 -156q3 -20 3 -41v-113q0 -161 -150 -191q-33 -6 -70 -6zM260 111q75 2 76 72v121q-2 71 -76 72q-75 -2 -76 -72v-121q2 -71 76 -72z" glyph-name="o" horiz-adv-x="520" unicode="o"/>
<glyph d="M497 317v-147q-2 -179 -164 -180q-66 0 -124 14v-201l-144 -20v704h113l15 -39q65 42 135 48q8 1 15 1q130 0 151 -132q3 -23 3 -48zM209 334v-207q50 -12 92 -12q51 2 52 55v147q-2 54 -52 55q-46 0 -90 -36q-1 -2 -2 -2z" glyph-name="p" horiz-adv-x="537" unicode="p"/>
<glyph d="M40 292q0 115 57 160t177 45q96 0 198 -17v-677l-144 -20v234q-71 -27 -138 -27q-149 2 -150 176v126zM328 142v228q-22 2 -59 2q-72 0 -83 -50q-2 -13 -2 -29v-126q2 -51 52 -52q40 0 92 27z" glyph-name="q" horiz-adv-x="537" unicode="q"/>
<glyph d="M338 361q-87 -35 -129 -64v-297h-144v487h120l10 -47q54 36 118 54q7 2 13 3z" glyph-name="r" horiz-adv-x="345" unicode="r"/>
<glyph d="M398 145q0 -105 -73 -137q-41 -18 -108 -18q-88 0 -175 28q-1 1 -2 1l23 107q74 -22 147 -22q42 0 48 22q2 8 2 19q0 24 -11 32q-13 9 -68 22q-91 22 -113 59q-16 27 -16 93q0 90 51 121q43 25 135 25q85 0 148 -16l-13 -112q-75 14 -134 14q-47 0 -51 -24q-1 -4 -1 -9 q0 -25 13 -32q12 -7 49 -15q104 -23 130 -58q19 -27 19 -100z" glyph-name="s" horiz-adv-x="433" unicode="s"/>
<glyph d="M332 8q-53 -18 -104 -18q-144 5 -147 125v256h-66v116h66v117l144 20v-137h111l-8 -116h-103v-236q2 -26 30 -27q33 0 60 9z" glyph-name="t" horiz-adv-x="360" unicode="t"/>
<glyph d="M60 487h144v-322q2 -34 35 -35q42 1 105 35v322h144v-487h-107l-15 37q-99 -44 -194 -47q-111 2 -112 156v341z" glyph-name="u" horiz-adv-x="553" unicode="u"/>
<glyph d="M495 487l-153 -487h-184l-153 487h146l99 -345l99 345h146z" glyph-name="v" horiz-adv-x="500" unicode="v"/>
<glyph d="M447 0l-95 318l-94 -318h-156l-84 487h132l46 -285l85 285h144l84 -285l46 285h132l-84 -487h-156z" glyph-name="w" horiz-adv-x="705" unicode="w"/>
<glyph d="M473 487l-151 -242l155 -245h-145l-86 135l-86 -135h-145l155 245l-151 242h142l85 -133l85 133h142z" glyph-name="x" horiz-adv-x="492" unicode="x"/>
<glyph d="M280 -197h-136l57 197h-46l-150 487h146l99 -345l99 345h146l-153 -487z" glyph-name="y" horiz-adv-x="495" unicode="y"/>
<glyph d="M46 377v110h368v-110l-202 -267h208v-110h-375v110l201 267h-200z" glyph-name="z" horiz-adv-x="460" unicode="z"/>
<glyph d="M40 324v54h26q35 2 36 34v229q2 148 141 149h87v-114h-44q-38 -6 -40 -42v-205q-2 -101 -95 -105q94 -5 95 -105v-205q6 -40 40 -42h44v-114h-87q-140 2 -141 149v229q-2 33 -36 34h-26v54z" glyph-name="braceleft" horiz-adv-x="340" unicode="{"/>
<glyph d="M180 -210h-100v1000h100v-1000z" glyph-name="bar" horiz-adv-x="260" unicode="|"/>
<glyph d="M300 378v-54v-54h-26q-35 -2 -36 -34v-229q-2 -148 -141 -149h-87v114h44q38 6 40 42v205q2 101 95 105q-94 5 -95 105v205q-6 40 -40 42h-44v114h87q140 -2 141 -149v-229q2 -33 36 -34h26z" glyph-name="braceright" horiz-adv-x="340" unicode="}"/>
<glyph d="M305 187q-39 0 -94 39q-33 23 -45 23q-38 -1 -63 -62l-78 45q50 125 141 126q26 0 82 -36q41 -26 57 -26q37 0 59 51q2 6 4 11l78 -45q-44 -125 -141 -126z" glyph-name="asciitilde" horiz-adv-x="461" unicode="~"/>
<glyph glyph-name="nbspace" horiz-adv-x="210" unicode=" "/>
<glyph d="M100 256h84l30 -174v-279h-144v279zM70 487h144v-166h-144v166z" glyph-name="exclamdown" horiz-adv-x="284" unicode="¡"/>
<glyph d="M188 -10v95q-117 17 -144 113q-9 35 -9 80v111q0 134 90 175q28 12 63 18v94h93v-90q36 -2 95 -14l-18 -120q-52 12 -100 12q-66 0 -77 -47q-2 -12 -2 -26v-115q0 -60 48 -70q14 -3 31 -3q48 0 100 12l18 -120q-49 -12 -95 -15v-90h-93z" glyph-name="cent" horiz-adv-x="426" unicode="¢"/>
<glyph d="M55 281v103h72q-17 70 -17 107q0 121 101 152q42 13 103 13q87 0 181 -24l-19 -113q-77 17 -161 17q-56 0 -60 -45q-1 -6 -1 -12q0 -40 16 -95h175l-10 -103h-153q1 -8 1 -20q-1 -73 -62 -138h277v-123h-438v123q78 62 79 140q0 12 -1 18h-83z" glyph-name="sterling" horiz-adv-x="543" unicode="£"/>
<glyph d="M529 521l-68 -68q10 -23 10 -51v-134q0 -30 -10 -52l68 -67l-85 -85l-78 77q-34 -8 -74 -8q-42 0 -75 8l-77 -77l-85 85l68 68q-9 23 -9 51v134q0 27 9 51l-68 68l85 85l77 -78q31 9 75 9q43 0 74 -9l78 78zM236 386v-102q0 -37 37 -41q8 -1 19 -1q46 0 54 24q3 8 3 18 v102q0 37 -38 41q-9 1 -19 1q-45 0 -53 -23q-3 -9 -3 -19z" glyph-name="currency" horiz-adv-x="584" unicode="¤"/>
<glyph d="M492 120h-143v-120h-150v120h-142v89h134l-34 78h-100v93h60l-117 266h157l117 -289l117 289h157l-117 -266h61v-93h-102l-34 -78h136v-89z" glyph-name="yen" horiz-adv-x="548" unicode="¥"/>
<glyph d="M180 -210h-100v417h100v-417zM180 790v-417h-100v417h100z" glyph-name="brokenbar" horiz-adv-x="260" unicode="¦"/>
<glyph d="M264 25l-112 -25q-95 314 -106 518q-1 21 -1 39q0 96 99 115q22 4 47 4q87 0 184 -29l-17 -95q-97 23 -150 23q-42 -2 -43 -40q0 -152 99 -510zM276 464l112 25q95 -314 106 -518q1 -21 1 -39q0 -96 -99 -115q-22 -4 -47 -4q-87 0 -184 29l17 95q97 -23 150 -23 q42 2 43 40q0 152 -99 510z" glyph-name="section" horiz-adv-x="535" unicode="§"/>
<glyph d="M169 554h-114v118h114v-118zM379 554h-114v118h114v-118z" glyph-name="dieresis" horiz-adv-x="434" unicode="¨"/>
<glyph d="M350 374v-77q0 -42 39 -46h10q42 0 78 8l13 -88q-40 -11 -91 -11q-146 0 -154 114v14v94q0 112 118 125q18 2 36 2q53 0 91 -11l-13 -88q-38 9 -78 9q-48 -2 -49 -45zM40 333q0 148 97 246t246 98q160 0 257 -110q86 -96 86 -234q0 -147 -97 -245t-246 -98 q-159 0 -257 109q-86 97 -86 234zM137 333q0 -121 83 -192q67 -57 163 -57q125 0 195 91q51 67 51 158q0 122 -83 193q-67 57 -163 57q-126 0 -195 -91q-51 -68 -51 -159z" glyph-name="copyright" horiz-adv-x="766" unicode="©"/>
<glyph d="M317 378h-76l-6 20q-47 -26 -89 -26q-66 0 -79 67q-2 13 -2 27q0 72 57 85q16 3 36 3h67v24q0 31 -17 38q-13 5 -38 5q-41 0 -84 -9l-13 69q50 15 112 15q93 0 117 -41q15 -26 15 -78v-199zM225 454v36h-44q-26 -5 -28 -22q2 -24 25 -25q22 0 47 11z" glyph-name="ordfeminine" horiz-adv-x="377" unicode="ª"/>
<glyph d="M172 51l-127 193l127 193l91 -57l-89 -136l89 -136zM394 51l-127 193l127 193l91 -57l-89 -136l89 -136z" glyph-name="guillemotleft" horiz-adv-x="560" unicode="«"/>
<glyph d="M322 104v154h-282v110h402v-264h-120z" glyph-name="logicalnot" horiz-adv-x="507" unicode="¬"/>
<glyph d="M45 515q0 93 68 145q47 36 112 36q99 0 150 -75q31 -47 31 -106q0 -94 -68 -146q-48 -36 -113 -36q-98 0 -149 75q-31 47 -31 107zM104 515q0 -81 59 -112q27 -14 62 -14q85 0 112 71q10 26 10 55q0 80 -60 111q-27 14 -62 14q-86 0 -112 -73q-9 -24 -9 -52zM262 436 l-38 54h-20v-54h-40v166h69q54 -2 55 -48v-16q-1 -30 -22 -41l42 -61h-46zM249 542v8q-2 14 -19 15h-26v-39h26q18 2 19 16z" glyph-name="registered" horiz-adv-x="451" unicode="®"/>
<glyph d="M299 560h-254v92h254v-92z" glyph-name="macron" horiz-adv-x="344" unicode="¯"/>
<glyph d="M323 522q0 -76 -58 -113q-34 -21 -78 -21q-83 0 -120 65q-17 31 -17 69q0 75 58 112q34 22 79 22q82 0 118 -64q18 -32 18 -70zM246 522q0 54 -42 64q-9 2 -17 2q-50 0 -59 -50q-1 -8 -1 -16q0 -50 39 -63q10 -3 21 -3q45 0 56 44q3 11 3 22z" glyph-name="degree" horiz-adv-x="373" unicode="°"/>
<glyph d="M462 307h-146v-148h-115v148h-146v110h146v149h115v-149h146v-110zM462 0h-407v105h407v-105z" glyph-name="plusminus" horiz-adv-x="517" unicode="±"/>
<glyph d="M280 413q-43 -52 -70 -82h124v-88h-274v78q14 14 34 36q32 33 58 59q45 46 54.5 60t9.5 31v1v19q0 28 -21 32q-7 1 -17 1q-45 0 -109 -16l-19 91q73 21 140 21q100 0 122 -55q9 -23 9 -57v-33q0 -44 -30 -84q-5 -7 -11 -14z" glyph-name="twosuperior" horiz-adv-x="394" unicode="²"/>
<glyph d="M74 486h98q32 2 33 30v22q0 26 -18 31q-12 3 -30 3q-41 0 -86 -8l-12 79q56 13 103 13q118 0 139 -65q5 -18 5 -40v-23q0 -44 -28 -67q-8 -6 -18 -12q47 -16 51 -64q1 -8 1 -17v-22q0 -77 -63 -99q-33 -12 -85 -12q-61 0 -114 16l13 80q46 -11 100 -11q44 7 48 33v21 q-2 30 -36 31h-101v81z" glyph-name="threesuperior" horiz-adv-x="367" unicode="³"/>
<glyph d="M100 537l-50 76q89 56 151 102l54 -84q-86 -56 -155 -94z" glyph-name="acute" horiz-adv-x="310" unicode="´"/>
<glyph d="M60 -197v684h144v-322q2 -34 35 -35q42 1 105 35v322h144v-487h-107l-15 37q-77 -36 -162 -45v-189h-144z" glyph-name="mu" horiz-adv-x="553" unicode="µ"/>
<glyph d="M45 441q0 108 78 173q63 52 147 52v-449q-108 0 -173 78q-52 62 -52 146zM299 -207l-68 78q98 90 110 104q12 18 12 46v645h110v-661q0 -47 -21 -76q-17 -22 -107 -104q-21 -18 -36 -32z" glyph-name="paragraph" horiz-adv-x="538" unicode="¶"/>
<glyph d="M209 254h-144v166h144v-166z" glyph-name="periodcentered" unicode="·"/>
<glyph d="M241 -115q0 -77 -97 -82h-15q-43 0 -84 16l14 55q34 -10 62 -10q44 4 47 22q0 20 -16 22h-19q-11 0 -42 -2l-20 17l21 97h63l-13 -67q83 11 96 -40q3 -13 3 -28z" glyph-name="cedilla" horiz-adv-x="286" unicode="¸"/>
<glyph d="M261 241h-105v285l-84 -40l-37 82l143 78h83v-405z" glyph-name="onesuperior" horiz-adv-x="356" unicode="¹"/>
<glyph d="M201 372q-134 0 -141 115v11v72q0 117 123 125q9 1 18 1q131 0 140 -112v-14v-72q0 -115 -118 -125q-11 -1 -22 -1zM201 449q47 2 48 46v78q-2 45 -48 46q-48 -2 -49 -46v-78q2 -45 49 -46z" glyph-name="ordmasculine" horiz-adv-x="401" unicode="º"/>
<glyph d="M515 244l-127 -193l-91 57l89 136l-89 136l91 57zM293 244l-127 -193l-91 57l89 136l-89 136l91 57z" glyph-name="guillemotright" horiz-adv-x="560" unicode="»"/>
<glyph d="M808 77h-59v-77h-100v77h-183v72l138 256h145v-247h59v-81zM649 158v162l-80 -162h80zM261 241h-105v285l-84 -40l-37 82l143 78h83v-405zM211 -10l311 701l78 -35l-310 -700z" glyph-name="onequarter" horiz-adv-x="868" unicode="¼"/>
<glyph d="M261 241h-105v285l-84 -40l-37 82l143 78h83v-405zM764 170q-43 -52 -70 -82h124v-88h-274v78q14 14 34 36q32 33 58 59q45 46 54.5 60t9.5 31v1v19q0 28 -21 32q-7 1 -17 1q-45 0 -109 -16l-19 91q73 21 140 21q100 0 122 -55q9 -23 9 -57v-33q0 -44 -30 -84 q-5 -7 -11 -14zM210 -10l311 701l78 -35l-310 -700z" glyph-name="onehalf" horiz-adv-x="878" unicode="½"/>
<glyph d="M69 484h98q32 2 33 30v24q0 26 -18 31q-12 3 -30 3q-55 0 -86 -7l-12 79q54 12 103 12q118 0 139 -65q5 -18 5 -40v-23q0 -44 -28 -67q-8 -6 -18 -12q47 -16 51 -64q1 -8 1 -17v-22q0 -77 -63 -99q-33 -12 -85 -12q-61 0 -114 16l13 78q44 -9 116 -9q31 1 32 29v29 q-2 28 -32 29h-105v77zM825 77h-59v-77h-100v77h-183v72l138 256h145v-247h59v-81zM666 158v162l-80 -162h80zM226 -10l310 701l78 -35l-309 -700z" glyph-name="threequarters" horiz-adv-x="885" unicode="¾"/>
<glyph d="M189 487h144v-166h-144v166zM242 259l81 -110q-103 -77 -121 -104q-13 -20 -13 -54q0 -52 44 -64q20 -6 50 -6q59 0 147 16l20 -124q-99 -20 -183 -20q-163 0 -204 87q-18 40 -18 103q0 80 17 114q21 41 106 107q28 21 74 55z" glyph-name="questiondown" horiz-adv-x="485" unicode="¿"/>
<glyph d="M413 666l204 -666h-156l-36 130h-223l-36 -130h-156l203 666h200zM313 534l-77 -279h153zM377 783l-50 -76q-84 44 -140 84l54 84q45 -34 136 -92z" glyph-name="Agrave" horiz-adv-x="627" unicode="À"/>
<glyph d="M413 666l204 -666h-156l-36 130h-223l-36 -130h-156l203 666h200zM313 534l-77 -279h153zM317 707l-50 76q93 59 136 92l54 -84q-58 -41 -140 -84z" glyph-name="Aacute" horiz-adv-x="627" unicode="Á"/>
<glyph d="M413 666l204 -666h-156l-36 130h-223l-36 -130h-156l203 666h200zM313 534l-77 -279h153zM441 774l-39 -62q-48 22 -89 45q-42 -24 -89 -45l-39 62q61 42 128 94q68 -53 128 -94z" glyph-name="Acircumflex" horiz-adv-x="627" unicode="Â"/>
<glyph d="M413 666l204 -666h-156l-36 130h-223l-36 -130h-156l203 666h200zM313 534l-77 -279h153zM374 717q-38 1 -67 21q-32 21 -46 22q-21 0 -46 -38q-3 -6 -4 -7l-58 45q45 86 105 87q34 -1 65 -21q36 -23 51 -23q28 0 37 37q1 3 1 4l68 -31q-24 -86 -92 -95q-7 -1 -14 -1z " glyph-name="Atilde" horiz-adv-x="627" unicode="Ã"/>
<glyph d="M413 666l204 -666h-156l-36 130h-223l-36 -130h-156l203 666h200zM313 534l-77 -279h153zM269 727h-114v109h114v-109zM471 727h-114v109h114v-109z" glyph-name="Adieresis" horiz-adv-x="627" unicode="Ä"/>
<glyph d="M413 666l204 -666h-156l-36 130h-223l-36 -130h-156l203 666h200zM313 534l-77 -279h153zM401 791q0 -52 -44 -74q-20 -10 -44 -10q-62 0 -82 50q-6 16 -6 34q0 53 44 75q20 10 44 10q57 0 79 -46q9 -19 9 -39zM347 791q-5 33 -34 36q-31 -5 -34 -36q0 -30 27 -34 q4 -1 7 -1q29 0 33 28q1 4 1 7z" glyph-name="Aring" horiz-adv-x="627" unicode="Å"/>
<glyph d="M805 0h-344l-36 130h-223l-36 -130h-156l203 666h592v-133h-352l38 -122h293v-133h-253l45 -145h229v-133zM313 534l-77 -279h153z" glyph-name="AE" horiz-adv-x="855" unicode="Æ"/>
<glyph d="M413 -115q0 -77 -97 -82h-15q-43 0 -84 16l14 55q34 -10 62 -10q44 4 47 22q0 20 -16 22h-19q-11 0 -42 -2l-20 17l15 69q-165 11 -200 137q-8 30 -8 65v278q0 141 125 186q51 18 118 18q95 0 193 -21l-21 -131q-93 16 -172 16q-92 -2 -93 -92v-230q2 -91 93 -92 q80 0 172 16l21 -131q-89 -19 -165 -20l-7 -38q83 11 96 -40q3 -13 3 -28z" glyph-name="Ccedilla" horiz-adv-x="521" unicode="Ç"/>
<glyph d="M484 0h-419v666h419v-133h-269v-122h248v-133h-248v-145h269v-133zM349 783l-50 -76q-84 44 -140 84l54 84q45 -34 136 -92z" glyph-name="Egrave" horiz-adv-x="534" unicode="È"/>
<glyph d="M484 0h-419v666h419v-133h-269v-122h248v-133h-248v-145h269v-133zM255 707l-50 76q93 59 136 92l54 -84q-58 -41 -140 -84z" glyph-name="Eacute" horiz-adv-x="534" unicode="É"/>
<glyph d="M484 0h-419v666h419v-133h-269v-122h248v-133h-248v-145h269v-133zM413 774l-39 -62q-48 22 -89 45q-42 -24 -89 -45l-39 62q61 42 128 94q68 -53 128 -94z" glyph-name="Ecircumflex" horiz-adv-x="534" unicode="Ê"/>
<glyph d="M484 0h-419v666h419v-133h-269v-122h248v-133h-248v-145h269v-133zM234 727h-114v109h114v-109zM436 727h-114v109h114v-109z" glyph-name="Edieresis" horiz-adv-x="534" unicode="Ë"/>
<glyph d="M220 0h-150v666h150v-666zM213 783l-50 -76q-84 44 -140 84l54 84q45 -34 136 -92z" glyph-name="Igrave" horiz-adv-x="290" unicode="Ì"/>
<glyph d="M220 0h-150v666h150v-666zM132 707l-50 76q93 59 136 92l54 -84q-58 -41 -140 -84z" glyph-name="Iacute" horiz-adv-x="290" unicode="Í"/>
<glyph d="M220 0h-150v666h150v-666zM273 774l-39 -62q-48 22 -89 45q-42 -24 -89 -45l-39 62q61 42 128 94q68 -53 128 -94z" glyph-name="Icircumflex" horiz-adv-x="290" unicode="Î"/>
<glyph d="M220 0h-150v666h150v-666zM101 727h-114v109h114v-109zM303 727h-114v109h114v-109z" glyph-name="Idieresis" horiz-adv-x="290" unicode="Ï"/>
<glyph d="M25 276v119h66v271h258q164 0 210 -102q15 -33 15 -71v-320q0 -100 -87 -145q-56 -28 -138 -28h-258v276h-66zM424 214v238q0 59 -41 74q-21 7 -52 7h-90v-138h88v-119h-88v-143h90q76 0 89 47q4 14 4 34z" glyph-name="Eth" horiz-adv-x="624" unicode="Ð"/>
<glyph d="M426 0l-218 438v-438h-143v666h184l219 -459v459h143v-666h-185zM403 717q-38 1 -67 21q-32 21 -46 22q-21 0 -46 -38q-3 -6 -4 -7l-58 45q45 86 105 87q34 -1 65 -21q36 -23 51 -23q28 0 37 37q1 3 1 4l68 -31q-24 -86 -92 -95q-7 -1 -14 -1z" glyph-name="Ntilde" horiz-adv-x="676" unicode="Ñ"/>
<glyph d="M566 472v-278q0 -104 -84 -160q-67 -44 -174 -44q-173 0 -233 107q-25 44 -25 97v278q0 104 84 160q67 44 174 44q173 0 233 -107q25 -44 25 -97zM416 207v252q-2 83 -108 84q-107 -1 -108 -84v-252q2 -83 108 -84q107 1 108 84zM364 783l-50 -76q-84 44 -140 84l54 84 q45 -34 136 -92z" glyph-name="Ograve" horiz-adv-x="616" unicode="Ò"/>
<glyph d="M566 472v-278q0 -104 -84 -160q-67 -44 -174 -44q-173 0 -233 107q-25 44 -25 97v278q0 104 84 160q67 44 174 44q173 0 233 -107q25 -44 25 -97zM416 207v252q-2 83 -108 84q-107 -1 -108 -84v-252q2 -83 108 -84q107 1 108 84zM300 707l-50 76q93 59 136 92l54 -84 q-58 -41 -140 -84z" glyph-name="Oacute" horiz-adv-x="616" unicode="Ó"/>
<glyph d="M566 472v-278q0 -104 -84 -160q-67 -44 -174 -44q-173 0 -233 107q-25 44 -25 97v278q0 104 84 160q67 44 174 44q173 0 233 -107q25 -44 25 -97zM416 207v252q-2 83 -108 84q-107 -1 -108 -84v-252q2 -83 108 -84q107 1 108 84zM436 774l-39 -62q-48 22 -89 45 q-42 -24 -89 -45l-39 62q61 42 128 94q68 -53 128 -94z" glyph-name="Ocircumflex" horiz-adv-x="616" unicode="Ô"/>
<glyph d="M566 472v-278q0 -104 -84 -160q-67 -44 -174 -44q-173 0 -233 107q-25 44 -25 97v278q0 104 84 160q67 44 174 44q173 0 233 -107q25 -44 25 -97zM416 207v252q-2 83 -108 84q-107 -1 -108 -84v-252q2 -83 108 -84q107 1 108 84zM372 717q-38 1 -67 21q-32 21 -46 22 q-21 0 -46 -38q-3 -6 -4 -7l-58 45q45 86 105 87q34 -1 65 -21q36 -23 51 -23q28 0 37 37q1 3 1 4l68 -31q-24 -86 -92 -95q-7 -1 -14 -1z" glyph-name="Otilde" horiz-adv-x="616" unicode="Õ"/>
<glyph d="M566 472v-278q0 -104 -84 -160q-67 -44 -174 -44q-173 0 -233 107q-25 44 -25 97v278q0 104 84 160q67 44 174 44q173 0 233 -107q25 -44 25 -97zM416 207v252q-2 83 -108 84q-107 -1 -108 -84v-252q2 -83 108 -84q107 1 108 84zM264 727h-114v109h114v-109zM466 727 h-114v109h114v-109z" glyph-name="Odieresis" horiz-adv-x="616" unicode="Ö"/>
<glyph d="M343 53l-103 103l-103 -103l-82 82l103 103l-103 103l82 82l103 -103l103 103l82 -82l-103 -103l103 -103z" glyph-name="multiply" horiz-adv-x="480" unicode="×"/>
<glyph d="M50 -25l52 85q-52 54 -52 134v278q0 104 84 160q67 44 174 44q86 0 149 -30l49 80l60 -36l-52 -85q52 -56 52 -133v-278q0 -104 -84 -160q-67 -44 -174 -44q-90 0 -150 30l-48 -80zM200 459v-237l184 303q-30 18 -76 18q-107 -1 -108 -84zM308 123q107 1 108 84v236 l-184 -302q27 -18 76 -18z" glyph-name="Oslash" horiz-adv-x="616" unicode="Ø"/>
<glyph d="M412 666h150v-472q0 -113 -90 -167q-63 -37 -161 -37q-180 0 -233 117q-18 40 -18 87v472h150v-458q0 -74 74 -83q13 -2 27 -2q92 0 100 68q1 9 1 17v458zM387 783l-50 -76q-84 44 -140 84l54 84q45 -34 136 -92z" glyph-name="Ugrave" horiz-adv-x="622" unicode="Ù"/>
<glyph d="M412 666h150v-472q0 -113 -90 -167q-63 -37 -161 -37q-180 0 -233 117q-18 40 -18 87v472h150v-458q0 -74 74 -83q13 -2 27 -2q92 0 100 68q1 9 1 17v458zM290 707l-50 76q93 59 136 92l54 -84q-58 -41 -140 -84z" glyph-name="Uacute" horiz-adv-x="622" unicode="Ú"/>
<glyph d="M412 666h150v-472q0 -113 -90 -167q-63 -37 -161 -37q-180 0 -233 117q-18 40 -18 87v472h150v-458q0 -74 74 -83q13 -2 27 -2q92 0 100 68q1 9 1 17v458zM438 774l-39 -62q-48 22 -89 45q-42 -24 -89 -45l-39 62q61 42 128 94q68 -53 128 -94z" glyph-name="Ucircumflex" horiz-adv-x="622" unicode="Û"/>
<glyph d="M412 666h150v-472q0 -113 -90 -167q-63 -37 -161 -37q-180 0 -233 117q-18 40 -18 87v472h150v-458q0 -74 74 -83q13 -2 27 -2q92 0 100 68q1 9 1 17v458zM267 727h-114v109h114v-109zM469 727h-114v109h114v-109z" glyph-name="Udieresis" horiz-adv-x="622" unicode="Ü"/>
<glyph d="M564 666l-207 -474v-192h-150v192l-207 474h157l125 -309l125 309h157zM272 707l-50 76q93 59 136 92l54 -84q-58 -41 -140 -84z" glyph-name="Yacute" horiz-adv-x="564" unicode="Ý"/>
<glyph d="M559 291q0 -147 -134 -178q-42 -10 -96 -10h-114v-103h-150v666h150v-99h122q170 0 208 -102q14 -37 14 -87v-87zM409 306v58q0 52 -36 64q-18 6 -44 6h-114v-201h114q64 0 76 39q4 14 4 34z" glyph-name="Thorn" horiz-adv-x="584" unicode="Þ"/>
<glyph d="M352 532q-2 53 -70 54q-61 0 -71 -44q-2 -12 -2 -26v-516h-144v518q2 187 214 188q157 0 202 -98q15 -33 15 -73q-1 -51 -40 -114q-36 -61 -37 -78q0 -20 46 -62q5 -5 10 -9q68 -60 79 -88q6 -17 6 -50q0 -94 -51 -124q-36 -20 -100 -20q-73 0 -130 18l17 107 q44 -11 86 -11q39 2 40 26q0 13 -15 26q-6 5 -21 18q-19 17 -31 27q-62 54 -73 86q-7 19 -7 48q0 39 25 80q6 10 13 21q37 66 39 96z" glyph-name="germandbls" horiz-adv-x="590" unicode="ß"/>
<glyph d="M444 0h-118l-10 31q-74 -41 -139 -41q-99 0 -121 96q-6 24 -6 52q0 105 78 129q28 8 67 8h105v37q0 45 -20 56q-19 11 -66 11q-61 0 -132 -14l-19 108q79 24 175 24q133 0 175 -51q31 -41 31 -135v-311zM300 119v56h-69q-37 0 -42 -22q-1 -6 -1 -13q8 -35 39 -38 q36 0 73 17zM323 613l-50 -76q-71 39 -155 94l54 84q63 -47 151 -102z" glyph-name="agrave" horiz-adv-x="499" unicode="à"/>
<glyph d="M444 0h-118l-10 31q-74 -41 -139 -41q-99 0 -121 96q-6 24 -6 52q0 105 78 129q28 8 67 8h105v37q0 45 -20 56q-19 11 -66 11q-61 0 -132 -14l-19 108q79 24 175 24q133 0 175 -51q31 -41 31 -135v-311zM300 119v56h-69q-37 0 -42 -22q-1 -6 -1 -13q8 -35 39 -38 q36 0 73 17zM225 537l-50 76q89 56 151 102l54 -84q-86 -56 -155 -94z" glyph-name="aacute" horiz-adv-x="499" unicode="á"/>
<glyph d="M444 0h-118l-10 31q-74 -41 -139 -41q-99 0 -121 96q-6 24 -6 52q0 105 78 129q28 8 67 8h105v37q0 45 -20 56q-19 11 -66 11q-61 0 -132 -14l-19 108q79 24 175 24q133 0 175 -51q31 -41 31 -135v-311zM300 119v56h-69q-37 0 -42 -22q-1 -6 -1 -13q8 -35 39 -38 q36 0 73 17zM155 531l-44 59q76 59 143 117q68 -59 143 -117l-44 -59q-58 35 -99 65q-43 -31 -99 -65z" glyph-name="acircumflex" horiz-adv-x="499" unicode="â"/>
<glyph d="M444 0h-118l-10 31q-74 -41 -139 -41q-99 0 -121 96q-6 24 -6 52q0 105 78 129q28 8 67 8h105v37q0 45 -20 56q-19 11 -66 11q-61 0 -132 -14l-19 108q79 24 175 24q133 0 175 -51q31 -41 31 -135v-311zM300 119v56h-69q-37 0 -42 -22q-1 -6 -1 -13q8 -35 39 -38 q36 0 73 17zM310 546q-38 1 -67 21q-32 21 -46 22q-21 0 -46 -38q-3 -6 -4 -7l-58 45q45 86 105 87q34 -1 65 -21q36 -23 51 -23q28 0 37 37q1 3 1 4l68 -31q-24 -86 -92 -95q-7 -1 -14 -1z" glyph-name="atilde" horiz-adv-x="499" unicode="ã"/>
<glyph d="M444 0h-118l-10 31q-74 -41 -139 -41q-99 0 -121 96q-6 24 -6 52q0 105 78 129q28 8 67 8h105v37q0 45 -20 56q-19 11 -66 11q-61 0 -132 -14l-19 108q79 24 175 24q133 0 175 -51q31 -41 31 -135v-311zM300 119v56h-69q-37 0 -42 -22q-1 -6 -1 -13q8 -35 39 -38 q36 0 73 17zM210 554h-114v118h114v-118zM420 554h-114v118h114v-118z" glyph-name="adieresis" horiz-adv-x="499" unicode="ä"/>
<glyph d="M444 0h-118l-10 31q-74 -41 -139 -41q-99 0 -121 96q-6 24 -6 52q0 105 78 129q28 8 67 8h105v37q0 45 -20 56q-19 11 -66 11q-61 0 -132 -14l-19 108q79 24 175 24q133 0 175 -51q31 -41 31 -135v-311zM300 119v56h-69q-37 0 -42 -22q-1 -6 -1 -13q8 -35 39 -38 q36 0 73 17zM361 627q0 -60 -50 -83q-21 -10 -47 -10q-74 0 -92 60q-5 16 -5 33q0 59 49 83q22 10 48 10q68 0 90 -55q7 -18 7 -38zM301 627q-7 36 -37 40q-31 0 -36 -31q-1 -5 -1 -9q7 -36 37 -40q31 0 36 31q1 5 1 9z" glyph-name="aring" horiz-adv-x="499" unicode="å"/>
<glyph d="M706 193h-262v-22q2 -47 37 -58q19 -5 51 -5q79 0 148 21l21 -108q-86 -31 -183 -31q-99 1 -153 40q-78 -40 -168 -40q-99 0 -133 79q-14 31 -14 69q0 105 78 129q28 8 67 8h105v37q0 45 -20 56q-19 11 -66 11q-61 0 -132 -14l-19 108q79 24 175 24q89 0 146 -37 q57 37 125 37q174 0 194 -153q3 -23 3 -49v-102zM570 301v21q0 56 -47 61q-6 1 -13 1q-65 -2 -66 -62v-21h126zM300 119v56h-69q-37 0 -42 -22q-1 -6 -1 -13q8 -35 39 -38q36 0 73 17z" glyph-name="ae" horiz-adv-x="746" unicode="æ"/>
<glyph d="M179 301v-115q0 -60 48 -70q14 -3 31 -3q48 0 100 12l18 -120q-67 -15 -118 -15l-7 -37q83 11 96 -40q3 -13 3 -28q0 -77 -97 -82h-15q-43 0 -84 16l14 55q34 -10 62 -10q44 4 47 22q0 20 -16 22h-19q-11 0 -42 -2l-20 17l15 71q-122 16 -150 112q-10 35 -10 82v111 q0 136 93 177q50 21 130 21q52 0 118 -15l-18 -120q-52 12 -100 12q-66 0 -77 -47q-2 -12 -2 -26z" glyph-name="ccedilla" horiz-adv-x="406" unicode="ç"/>
<glyph d="M446 193h-262v-14q0 -52 34 -64q19 -7 54 -7q79 0 148 21l21 -108q-86 -31 -183 -31q-217 2 -218 198v114q2 194 209 195q174 0 194 -153q3 -23 3 -49v-102zM310 301v21q0 56 -47 61q-6 1 -13 1q-65 -2 -66 -62v-21h126zM321 613l-50 -76q-71 39 -155 94l54 84 q63 -47 151 -102z" glyph-name="egrave" horiz-adv-x="486" unicode="è"/>
<glyph d="M446 193h-262v-14q0 -52 34 -64q19 -7 54 -7q79 0 148 21l21 -108q-86 -31 -183 -31q-217 2 -218 198v114q2 194 209 195q174 0 194 -153q3 -23 3 -49v-102zM310 301v21q0 56 -47 61q-6 1 -13 1q-65 -2 -66 -62v-21h126zM226 537l-50 76q89 56 151 102l54 -84 q-86 -56 -155 -94z" glyph-name="eacute" horiz-adv-x="486" unicode="é"/>
<glyph d="M446 193h-262v-14q0 -52 34 -64q19 -7 54 -7q79 0 148 21l21 -108q-86 -31 -183 -31q-217 2 -218 198v114q2 194 209 195q174 0 194 -153q3 -23 3 -49v-102zM310 301v21q0 56 -47 61q-6 1 -13 1q-65 -2 -66 -62v-21h126zM150 531l-44 59q76 59 143 117q68 -59 143 -117 l-44 -59q-58 35 -99 65q-43 -31 -99 -65z" glyph-name="ecircumflex" horiz-adv-x="486" unicode="ê"/>
<glyph d="M446 193h-262v-14q0 -52 34 -64q19 -7 54 -7q79 0 148 21l21 -108q-86 -31 -183 -31q-217 2 -218 198v114q2 194 209 195q174 0 194 -153q3 -23 3 -49v-102zM310 301v21q0 56 -47 61q-6 1 -13 1q-65 -2 -66 -62v-21h126zM203 554h-114v118h114v-118zM413 554h-114v118 h114v-118z" glyph-name="edieresis" horiz-adv-x="486" unicode="ë"/>
<glyph d="M209 0h-144v487h144v-487zM206 613l-50 -76q-71 39 -155 94l54 84q63 -47 151 -102z" glyph-name="igrave" unicode="ì"/>
<glyph d="M209 0h-144v487h144v-487zM126 537l-50 76q89 56 151 102l54 -84q-86 -56 -155 -94z" glyph-name="iacute" unicode="í"/>
<glyph d="M209 0h-144v487h144v-487zM38 531l-44 59q76 59 143 117q68 -59 143 -117l-44 -59q-58 35 -99 65q-43 -31 -99 -65z" glyph-name="icircumflex" unicode="î"/>
<glyph d="M209 0h-144v487h144v-487zM89 554h-114v118h114v-118zM299 554h-114v118h114v-118z" glyph-name="idieresis" unicode="ï"/>
<glyph d="M292 621l50 49l45 -45l-41 -40q104 -85 104 -233v-179q-2 -182 -199 -183q-163 0 -193 117q-8 32 -8 76v30q0 123 77 155q33 13 83 13q41 0 96 -15v11q-1 74 -52 119l-71 -69l-45 45l60 58q-46 19 -116 32l22 114q109 -14 188 -55zM249 111q45 0 54 31q3 13 3 31v69 q-40 18 -72 18q-36 0 -42 -33q-1 -8 -1 -17v-41q2 -57 58 -58z" glyph-name="eth" horiz-adv-x="490" unicode="ð"/>
<glyph d="M493 0h-144v322q-2 34 -35 35q-42 -1 -105 -35v-322h-144v487h107l15 -37q99 44 194 47q111 -2 112 -156v-341zM343 546q-38 1 -67 21q-32 21 -46 22q-21 0 -46 -38q-3 -6 -4 -7l-58 45q45 86 105 87q34 -1 65 -21q36 -23 51 -23q28 0 37 37q1 3 1 4l68 -31 q-24 -86 -92 -95q-7 -1 -14 -1z" glyph-name="ntilde" horiz-adv-x="553" unicode="ñ"/>
<glyph d="M260 -10q-194 0 -217 156q-3 20 -3 41v113q0 161 150 191q33 6 70 6q194 0 217 -156q3 -20 3 -41v-113q0 -161 -150 -191q-33 -6 -70 -6zM260 111q75 2 76 72v121q-2 71 -76 72q-75 -2 -76 -72v-121q2 -71 76 -72zM326 613l-50 -76q-71 39 -155 94l54 84q63 -47 151 -102 z" glyph-name="ograve" horiz-adv-x="520" unicode="ò"/>
<glyph d="M260 -10q-194 0 -217 156q-3 20 -3 41v113q0 161 150 191q33 6 70 6q194 0 217 -156q3 -20 3 -41v-113q0 -161 -150 -191q-33 -6 -70 -6zM260 111q75 2 76 72v121q-2 71 -76 72q-75 -2 -76 -72v-121q2 -71 76 -72zM242 537l-50 76q89 56 151 102l54 -84q-86 -56 -155 -94 z" glyph-name="oacute" horiz-adv-x="520" unicode="ó"/>
<glyph d="M260 -10q-194 0 -217 156q-3 20 -3 41v113q0 161 150 191q33 6 70 6q194 0 217 -156q3 -20 3 -41v-113q0 -161 -150 -191q-33 -6 -70 -6zM260 111q75 2 76 72v121q-2 71 -76 72q-75 -2 -76 -72v-121q2 -71 76 -72zM161 531l-44 59q76 59 143 117q68 -59 143 -117l-44 -59 q-58 35 -99 65q-43 -31 -99 -65z" glyph-name="ocircumflex" horiz-adv-x="520" unicode="ô"/>
<glyph d="M260 -10q-194 0 -217 156q-3 20 -3 41v113q0 161 150 191q33 6 70 6q194 0 217 -156q3 -20 3 -41v-113q0 -161 -150 -191q-33 -6 -70 -6zM260 111q75 2 76 72v121q-2 71 -76 72q-75 -2 -76 -72v-121q2 -71 76 -72zM318 546q-38 1 -67 21q-32 21 -46 22q-21 0 -46 -38 q-3 -6 -4 -7l-58 45q45 86 105 87q34 -1 65 -21q36 -23 51 -23q28 0 37 37q1 3 1 4l68 -31q-24 -86 -92 -95q-7 -1 -14 -1z" glyph-name="otilde" horiz-adv-x="520" unicode="õ"/>
<glyph d="M260 -10q-194 0 -217 156q-3 20 -3 41v113q0 161 150 191q33 6 70 6q194 0 217 -156q3 -20 3 -41v-113q0 -161 -150 -191q-33 -6 -70 -6zM260 111q75 2 76 72v121q-2 71 -76 72q-75 -2 -76 -72v-121q2 -71 76 -72zM212 554h-114v118h114v-118zM422 554h-114v118h114v-118 z" glyph-name="odieresis" horiz-adv-x="520" unicode="ö"/>
<glyph d="M329 0h-134v136h134v-136zM469 198h-414v92h414v-92zM329 351h-134v136h134v-136z" glyph-name="divide" horiz-adv-x="524" unicode="÷"/>
<glyph d="M260 -10q-77 0 -127 25l-46 -65l-44 30l46 66q-49 51 -49 141v113q0 161 150 191q33 6 70 6q77 0 127 -25l46 65l44 -31l-46 -66q49 -51 49 -140v-113q0 -161 -150 -191q-33 -6 -70 -6zM184 183v-2l127 182q-20 13 -51 13q-75 -2 -76 -72v-121zM260 111q75 2 76 72v121 l-127 -180q18 -13 51 -13z" glyph-name="oslash" horiz-adv-x="520" unicode="ø"/>
<glyph d="M60 487h144v-322q2 -34 35 -35q42 1 105 35v322h144v-487h-107l-15 37q-99 -44 -194 -47q-111 2 -112 156v341zM344 613l-50 -76q-71 39 -155 94l54 84q63 -47 151 -102z" glyph-name="ugrave" horiz-adv-x="553" unicode="ù"/>
<glyph d="M60 487h144v-322q2 -34 35 -35q42 1 105 35v322h144v-487h-107l-15 37q-99 -44 -194 -47q-111 2 -112 156v341zM255 537l-50 76q89 56 151 102l54 -84q-86 -56 -155 -94z" glyph-name="uacute" horiz-adv-x="553" unicode="ú"/>
<glyph d="M60 487h144v-322q2 -34 35 -35q42 1 105 35v322h144v-487h-107l-15 37q-99 -44 -194 -47q-111 2 -112 156v341zM187 531l-44 59q76 59 143 117q68 -59 143 -117l-44 -59q-58 35 -99 65q-43 -31 -99 -65z" glyph-name="ucircumflex" horiz-adv-x="553" unicode="û"/>
<glyph d="M60 487h144v-322q2 -34 35 -35q42 1 105 35v322h144v-487h-107l-15 37q-99 -44 -194 -47q-111 2 -112 156v341zM238 554h-114v118h114v-118zM448 554h-114v118h114v-118z" glyph-name="udieresis" horiz-adv-x="553" unicode="ü"/>
<glyph d="M280 -197h-136l57 197h-46l-150 487h146l99 -345l99 345h146l-153 -487zM243 537l-50 76q89 56 151 102l54 -84q-86 -56 -155 -94z" glyph-name="yacute" horiz-adv-x="495" unicode="ý"/>
<glyph d="M65 -217v903l144 20v-249q70 40 134 40q130 0 151 -132q3 -23 3 -48v-147q-2 -179 -164 -180q-66 0 -124 14v-201zM209 334v-207q50 -12 92 -12q51 2 52 55v147q-2 54 -52 55q-46 0 -90 -36q-1 -2 -2 -2z" glyph-name="thorn" horiz-adv-x="537" unicode="þ"/>
</font>
</defs>
</svg>
