<?xml version="1.0" encoding="UTF-8"?>
<!DOCTYPE svg  PUBLIC '-//W3C//DTD SVG 1.1//EN'  'http://www.w3.org/Graphics/SVG/1.1/DTD/svg11.dtd'>
<svg version="1.1" xmlns="http://www.w3.org/2000/svg">
<defs>
<font id="Klavika-Medium" horiz-adv-x="491">
<font-face font-family="a" font-weight="500" ascent="750" bbox="-14 -214 929 866" cap-height="666" descent="-250" panose-1="2 0 0 0 0 0 0 0 0 0" underline-position="-133" underline-thickness="20" unicode-range="U+0020-00FE" units-per-em="1000" x-height="487"/>
<missing-glyph/>
<glyph glyph-name="space" horiz-adv-x="210" unicode=" "/>
<glyph d="M178 216h-72l-25 173v297h122v-297zM80 0v140h124v-140h-124z" glyph-name="exclam" horiz-adv-x="284" unicode="!"/>
<glyph d="M147 439h-87v247h87v-247zM327 439h-87v247h87v-247z" glyph-name="quotedbl" horiz-adv-x="387" unicode='"'/>
<glyph d="M631 163h-121l-8 -163h-90l8 163h-155l-9 -163h-90l8 163h-124l5 84h123l8 159h-126l5 84h125l8 156h91l-8 -156h155l8 156h91l-9 -156h120l-5 -84h-119l-8 -159h122zM276 406l-8 -159h156l7 159h-155z" glyph-name="numbersign" horiz-adv-x="698" unicode="#"/>
<glyph d="M298 -118h-100v110q-79 5 -148 31l22 100q87 -27 162 -27q71 0 87 27q9 17 9 56q0 48 -14 62q-19 18 -93 36q-110 26 -141 65q-27 44 -28 133q0 113 66 152q38 22 102 27v112h101v-112q64 -4 118 -17l-13 -105q-82 17 -163 17q-62 0 -77 -21q-12 -17 -12 -56 q0 -46 12 -58q13 -14 84 -33h1l1 -1h1q120 -34 151 -72q25 -29 26 -102v-26q0 -114 -56 -155q-36 -25 -98 -32v-111z" glyph-name="dollar" horiz-adv-x="506" unicode="$"/>
<glyph d="M607 645l-269 -655l-77 31l269 655zM362 454q0 -125 -120 -140q-17 -2 -36 -2q-144 0 -155 119q-1 11 -1 23v80q0 125 120 140q17 2 36 2q144 0 155 -119q1 -11 1 -23v-80zM266 541q0 42 -34 50q-12 2 -26 2q-51 0 -58 -33q-2 -9 -2 -19v-94q0 -42 34 -50q12 -2 26 -2 q51 0 58 33q2 9 2 19v94zM822 132q0 -125 -120 -140q-17 -2 -36 -2q-144 0 -155 119q-1 11 -1 23v80q0 125 120 140q17 2 36 2q144 0 155 -119q1 -11 1 -23v-80zM726 219q0 42 -34 50q-12 2 -26 2q-51 0 -58 -33q-2 -9 -2 -19v-94q0 -42 34 -50q12 -2 26 -2q51 0 58 33 q2 9 2 19v94z" glyph-name="percent" horiz-adv-x="877" unicode="%"/>
<glyph d="M610 281h-97v-258q-101 -33 -232 -33q-195 0 -210 138q-1 13 -1 26v56q1 102 81 132q-69 35 -69 121v52q0 133 140 156q33 5 71 5q107 0 198 -20l-11 -100q-89 16 -192 16q-70 0 -81 -40q-2 -10 -2 -22v-60q2 -65 69 -66h336v-103zM284 91q64 0 113 9v181h-113 q-90 -2 -91 -72v-42q0 -54 35 -68q21 -8 56 -8z" glyph-name="ampersand" horiz-adv-x="655" unicode="&amp;"/>
<glyph d="M147 439h-87v247h87v-247z" glyph-name="quotesingle" horiz-adv-x="207" unicode="'"/>
<glyph d="M315 -102l-90 -52q-155 201 -155 458q1 258 155 458l90 -52q-95 -155 -115 -295q-7 -53 -7 -111q0 -173 75 -322q20 -40 47 -84z" glyph-name="parenleft" horiz-adv-x="335" unicode="("/>
<glyph d="M110 -154l-90 52q95 155 115 295q7 53 7 111q0 173 -75 322q-20 40 -47 84l90 52q155 -201 155 -458q-1 -258 -155 -458z" glyph-name="parenright" horiz-adv-x="335" unicode=")"/>
<glyph d="M121 375l73 113h-134v59h136l-74 117l49 32l79 -122l79 122l50 -32l-76 -117h139v-59h-136l73 -113l-51 -32l-78 121l-78 -121z" glyph-name="asterisk" horiz-adv-x="502" unicode="*"/>
<glyph d="M60 195v96h154v155h100v-155h154v-96h-154v-155h-100v155h-154z" glyph-name="plus" horiz-adv-x="528" unicode="+"/>
<glyph d="M75 0v140h124v-148l-78 -131l-56 31l56 108h-46z" glyph-name="comma" horiz-adv-x="274" unicode=","/>
<glyph d="M60 229v102h252v-102h-252z" glyph-name="hyphen" horiz-adv-x="372" unicode="-"/>
<glyph d="M75 0v140h124v-140h-124z" glyph-name="period" horiz-adv-x="274" unicode="."/>
<glyph d="M414 676l-249 -793h-110l248 793h111z" glyph-name="slash" horiz-adv-x="459" unicode="/"/>
<glyph d="M497 477v-308q0 -172 -200 -179h-16q-213 4 -216 179v308q0 172 200 179h16q213 -4 216 -179zM187 465v-284q0 -58 33 -74q22 -10 61 -10q72 0 87 38q7 17 7 46v284q0 58 -33 74q-22 10 -61 10q-72 0 -87 -38q-7 -17 -7 -46z" glyph-name="zero" horiz-adv-x="562" unicode="0"/>
<glyph d="M182 511l-121 -67l-51 96l184 106h110v-646h-122v511z" glyph-name="one" horiz-adv-x="384" unicode="1"/>
<glyph d="M53 0v105q101 110 155 173q80 93 94 119q15 29 15 71v17q0 44 -30 55q-21 8 -63 8q-67 0 -157 -20l-17 102q91 26 181 26q160 0 195 -84q13 -31 13 -73v-23q0 -73 -18 -111q-18 -36 -83 -116q-61 -75 -119 -142h222v-107h-388z" glyph-name="two" horiz-adv-x="501" unicode="2"/>
<glyph d="M50 11l13 101q74 -15 143 -15q80 0 96 28q8 14 8 42v39q0 51 -40 61q-13 3 -32 3h-143v109h121q66 0 78 37q4 14 4 33v39q0 44 -33 55q-20 6 -59 6q-65 0 -138 -14l-13 103q73 18 162 18q155 0 190 -75q13 -30 13 -72v-62q0 -75 -46 -107q-12 -8 -26 -14q69 -23 81 -86 q3 -16 3 -35v-57q0 -101 -79 -136q-52 -22 -143 -22t-155 20q-3 0 -5 1z" glyph-name="three" horiz-adv-x="492" unicode="3"/>
<glyph d="M535 142h-85v-142h-120v142h-302v113l259 391h163v-400h85v-104zM150 246h180v279z" glyph-name="four" horiz-adv-x="565" unicode="4"/>
<glyph d="M80 279v367h356v-106h-234v-161q31 -1 90 -4q138 -7 153 -120q2 -16 2 -33v-61q0 -101 -60 -139q-52 -32 -157 -32q-90 0 -170 24l15 100q76 -17 153 -17q76 0 90 27q7 15 7 48v32q0 46 -29 60q-20 8 -57 10q-88 4 -159 5z" glyph-name="five" horiz-adv-x="502" unicode="5"/>
<glyph d="M182 429v-62q53 18 119 18q126 0 157 -81q13 -35 13 -84v-48q-2 -181 -205 -182q-151 0 -189 86q-17 40 -17 105v243q0 156 108 205q62 27 168 27q64 0 115 -12l-8 -102q-43 9 -94 9q-107 0 -140 -32q-27 -29 -27 -90zM282 280q-51 0 -100 -21v-91q0 -54 36 -67 q18 -6 48 -6q67 0 79 41q4 14 4 32v49q0 54 -45 61q-11 2 -22 2z" glyph-name="six" horiz-adv-x="526" unicode="6"/>
<glyph d="M25 539v107h405v-103l-231 -543h-127l230 539h-277z" glyph-name="seven" horiz-adv-x="460" unicode="7"/>
<glyph d="M470 453q0 -68 -56 -109q-11 -8 -23 -15q79 -39 92 -97q3 -16 3 -34v-42q0 -109 -74 -143q-50 -23 -139 -23q-149 0 -191 67q-22 37 -22 99v42q0 67 55 107q17 13 40 24q-73 42 -78 109q-1 8 -1 15v45q9 155 197 158q195 -3 197 -158v-45zM368 185q0 38 -23 56 q-21 17 -72 37q-75 -29 -89 -56q-6 -14 -6 -37v-27q0 -49 39 -61q21 -6 56 -6q75 0 89 33q6 14 6 34v27zM194 453q0 -34 22 -50q18 -12 57 -28q63 25 74 48q5 11 5 30v42q0 46 -38 57q-17 4 -41 4q-67 0 -76 -38q-3 -10 -3 -23v-42z" glyph-name="eight" horiz-adv-x="546" unicode="8"/>
<glyph d="M339 217v62q-53 -18 -119 -18q-126 0 -157 81q-13 35 -13 84v48q0 153 141 177q29 5 64 5q151 0 189 -86q17 -40 17 -105v-243q0 -156 -108 -205q-62 -27 -168 -27q-64 0 -115 12l11 102q43 -9 91 -9q115 0 147 41q20 27 20 81zM239 366q51 0 100 21v91q0 54 -36 67 q-18 6 -48 6q-67 0 -79 -41q-4 -14 -4 -32v-49q0 -54 45 -61q11 -2 22 -2z" glyph-name="nine" horiz-adv-x="521" unicode="9"/>
<glyph d="M75 0v140h124v-140h-124zM75 304v140h124v-140h-124z" glyph-name="colon" horiz-adv-x="274" unicode=":"/>
<glyph d="M75 304v140h124v-140h-124zM75 0v140h124v-148l-78 -131l-56 31l56 108h-46z" glyph-name="semicolon" horiz-adv-x="274" unicode=";"/>
<glyph d="M50 211v66l432 220l38 -74l-355 -179l356 -179l-39 -75z" glyph-name="less" horiz-adv-x="586" unicode="&lt;"/>
<glyph d="M70 302v84h399v-84h-399zM70 114v84h399v-84h-399z" glyph-name="equal" horiz-adv-x="539" unicode="="/>
<glyph d="M536 277v-66l-432 -221l-39 75l356 179l-355 179l38 74z" glyph-name="greater" horiz-adv-x="586" unicode="&gt;"/>
<glyph d="M229 218l-69 93q46 36 92 73q48 38 56 62q6 17 6 57q0 56 -28 71q-23 13 -75 13q-71 0 -143 -18l-18 105q85 22 174 22q144 0 186 -64q26 -41 26 -122q0 -85 -16 -120q-18 -35 -65 -74q-37 -30 -126 -98zM147 0v140h124v-140h-124z" glyph-name="question" unicode="?"/>
<glyph d="M411 294l23 132q-27 11 -54 11q-38 0 -46 -31l-2 -8q-7 -42 -17 -98q-3 -30 23 -31q37 1 73 25zM245 301l18 102q13 74 70 89q21 5 50 5q60 0 118 -28q6 -3 11 -6l-37 -207q19 -5 35 -5q103 2 103 149q0 111 -85 165q-58 37 -142 37q-122 0 -195 -90q-58 -74 -58 -179 q0 -170 124 -235q64 -33 153 -33q81 0 155 29l23 -67q-76 -37 -177 -37q-213 0 -305 139q-56 85 -56 204q0 154 100 252q95 91 236 91q165 0 250 -105q57 -72 57 -169q0 -196 -152 -213q-15 -2 -29 -2q-65 0 -93 36q-4 6 -7 11q-42 -25 -98 -25q-64 0 -70 59q-2 16 1 33z " glyph-name="at" horiz-adv-x="738" unicode="@"/>
<glyph d="M489 0l-43 138h-247l-42 -138h-132l210 666h176l210 -666h-132zM323 562l-93 -315h184z" glyph-name="A" horiz-adv-x="646" unicode="A"/>
<glyph d="M355 0h-280v666h262q176 -2 177 -142v-69q0 -70 -59 -101q-8 -4 -15 -7q76 -16 93 -87q4 -18 4 -36v-71q0 -111 -103 -143q-35 -10 -79 -10zM411 169v50q0 61 -56 66q-7 1 -14 1h-140v-182h129q65 0 77 36q4 12 4 29zM388 449v59q-8 51 -66 54h-121v-175h120q66 2 67 62z " glyph-name="B" horiz-adv-x="577" unicode="B"/>
<glyph d="M60 183v300q2 192 237 193q95 0 181 -22l-14 -109q-92 17 -163 17q-87 0 -107 -48q-8 -22 -8 -53v-256q0 -72 48 -91q26 -10 67 -10q72 0 163 17l14 -109q-87 -22 -181 -22q-236 2 -237 193z" glyph-name="C" horiz-adv-x="523" unicode="C"/>
<glyph d="M75 666h248q176 0 213 -120q8 -28 8 -59v-308q0 -119 -106 -160q-48 -19 -115 -19h-248v666zM201 555v-444h109q85 0 102 53q6 19 6 45v248q0 71 -48 89q-24 9 -60 9h-109z" glyph-name="D" horiz-adv-x="604" unicode="D"/>
<glyph d="M75 0v666h408v-111h-282v-161h260v-111h-260v-172h282v-111h-408z" glyph-name="E" horiz-adv-x="538" unicode="E"/>
<glyph d="M201 0h-126v666h412v-111h-286v-177h264v-111h-264v-267z" glyph-name="F" horiz-adv-x="522" unicode="F"/>
<glyph d="M186 458v-252q0 -83 70 -99q21 -4 46 -4q49 0 103 8v202h119v-293q-105 -30 -223 -30q-240 2 -241 201v284q0 159 152 191q44 10 101 10q109 0 191 -22l-14 -110q-85 18 -187 18q-96 0 -113 -65q-4 -17 -4 -39z" glyph-name="G" horiz-adv-x="584" unicode="G"/>
<glyph d="M574 0h-126v281h-247v-281h-126v666h126v-274h247v274h126v-666z" glyph-name="H" horiz-adv-x="649" unicode="H"/>
<glyph d="M206 666v-666h-126v666h126z" glyph-name="I" horiz-adv-x="286" unicode="I"/>
<glyph d="M75 666h126v-677q0 -57 -38 -103q-28 -32 -98 -92l-75 85q66 64 75 79q10 16 10 42v666z" glyph-name="J" horiz-adv-x="271" unicode="J"/>
<glyph d="M201 666v-666h-126v666h126zM568 666l-210 -329l224 -337h-145l-218 337l206 329h143z" glyph-name="K" horiz-adv-x="612" unicode="K"/>
<glyph d="M201 666v-555h274v-111h-400v666h126z" glyph-name="L" horiz-adv-x="505" unicode="L"/>
<glyph d="M611 431l-123 -345h-160l-123 345l-11 -431h-129l30 666h141l172 -473l172 473h141l30 -666h-129z" glyph-name="M" horiz-adv-x="816" unicode="M"/>
<glyph d="M451 0l-253 505v-505h-123v666h168l253 -506v506h123v-666h-168z" glyph-name="N" horiz-adv-x="694" unicode="N"/>
<glyph d="M564 471v-276q0 -145 -133 -189q-52 -16 -119 -16q-204 0 -244 140q-8 31 -8 65v276q0 145 133 189q52 16 119 16q204 0 244 -140q8 -31 8 -65zM186 464v-262q0 -86 89 -99q18 -2 37 -2q115 0 125 82q1 10 1 19v262q0 86 -89 99q-18 2 -37 2q-115 0 -125 -82 q-1 -10 -1 -19z" glyph-name="O" horiz-adv-x="624" unicode="O"/>
<glyph d="M75 0v666h260q169 0 202 -109q9 -31 9 -71v-91q0 -146 -141 -173q-34 -6 -76 -6h-128v-216h-126zM420 476q0 60 -45 74q-20 5 -47 5h-127v-228h127q74 0 88 45q4 15 4 36v68z" glyph-name="P" horiz-adv-x="576" unicode="P"/>
<glyph d="M343 -173l-70 165q-175 12 -207 147q-6 27 -6 56v276q0 145 133 189q52 16 119 16q204 0 244 -140q8 -31 8 -65v-276q0 -145 -134 -189q-13 -4 -27 -7l53 -125zM186 464v-262q0 -86 89 -99q18 -2 37 -2q115 0 125 82q1 10 1 19v262q0 86 -89 99q-18 2 -37 2 q-115 0 -125 -82q-1 -10 -1 -19z" glyph-name="Q" horiz-adv-x="624" unicode="Q"/>
<glyph d="M625 0h-151l-153 220h-120v-220h-126v666h273q169 0 202 -108q10 -31 10 -72v-87q-1 -125 -100 -161zM434 476q0 61 -47 74q-18 5 -44 5h-142v-226h142q73 0 86 44q5 16 5 37v66z" glyph-name="R" horiz-adv-x="650" unicode="R"/>
<glyph d="M490 181q0 -105 -47 -146q-53 -45 -187 -45q-106 0 -192 33q-9 4 -16 7l22 99q102 -31 188 -31q78 0 95 27q11 17 11 56q0 52 -11 66q-15 18 -89 35q-10 2 -22 5q-115 26 -148 60q-32 34 -35 121v27q0 118 80 156q52 25 144 25q98 0 194 -22l-14 -106q-92 20 -178 20 q-74 0 -90 -26q-10 -16 -10 -50q0 -52 11 -66q13 -17 81 -34q10 -2 25 -6q123 -29 156 -63q29 -29 31 -102q1 -16 1 -40z" glyph-name="S" horiz-adv-x="540" unicode="S"/>
<glyph d="M211 0v555h-186v111h498v-111h-186v-555h-126z" glyph-name="T" horiz-adv-x="548" unicode="T"/>
<glyph d="M436 666h126v-473q0 -136 -119 -182q-53 -21 -127 -21q-195 0 -236 135q-10 32 -10 68v473h126v-463q0 -85 80 -99q19 -3 40 -3q106 0 118 76q2 13 2 26v463z" glyph-name="U" horiz-adv-x="632" unicode="U"/>
<glyph d="M300 111l161 555h131l-199 -666h-186l-199 666h131z" glyph-name="V" horiz-adv-x="600" unicode="V"/>
<glyph d="M556 666l121 -516l127 516h125l-165 -666h-170l-122 536l-122 -536h-170l-165 666h125l127 -516l121 516h168z" glyph-name="W" horiz-adv-x="944" unicode="W"/>
<glyph d="M378 335l209 -335h-136l-145 236l-145 -236h-136l209 335l-201 331h135l138 -232l138 232h135z" glyph-name="X" horiz-adv-x="612" unicode="X"/>
<glyph d="M283 330l144 336h134l-215 -473v-193h-126v193l-215 473h134z" glyph-name="Y" horiz-adv-x="566" unicode="Y"/>
<glyph d="M512 559l-306 -452h309v-107h-450v106l308 453h-296v107h435v-107z" glyph-name="Z" horiz-adv-x="575" unicode="Z"/>
<glyph d="M298 -126h-213v916h213v-100h-91v-716h91v-100z" glyph-name="bracketleft" horiz-adv-x="328" unicode="["/>
<glyph d="M294 -117l-249 793h111l248 -793h-110z" glyph-name="backslash" horiz-adv-x="459" unicode="\"/>
<glyph d="M243 -126h-213v100h91v716h-91v100h213v-916z" glyph-name="bracketright" horiz-adv-x="328" unicode="]"/>
<glyph d="M119 371l-74 45l149 270h85l151 -270l-76 -45l-117 213z" glyph-name="asciicircum" horiz-adv-x="475" unicode="^"/>
<glyph d="M440 -74h-441v64h441v-64z" glyph-name="underscore" horiz-adv-x="439" unicode="_"/>
<glyph d="M254 607l-45 -68q-63 36 -149 92l48 74q65 -48 146 -98z" glyph-name="grave" horiz-adv-x="314" unicode="`"/>
<glyph d="M431 321v-321h-100l-9 33q-66 -43 -145 -43q-102 0 -123 99q-4 22 -4 46q0 102 70 127q29 10 72 10h117v51q0 50 -27 63q-21 10 -66 10q-64 0 -135 -15l-15 93q76 23 167 23q136 0 175 -66q23 -39 23 -110zM309 112v72h-90q-41 0 -48 -23q-3 -10 -3 -25q0 -41 29 -47 q9 -2 20 -2q48 0 92 25z" glyph-name="a" unicode="a"/>
<glyph d="M483 330v-143q0 -113 -57 -157q-54 -40 -167 -40q-103 0 -189 17v679l122 17v-235q70 29 144 29q146 -2 147 -167zM192 365v-267q30 -4 73 -4q76 0 91 46q5 17 5 43v150q-4 58 -62 60q-47 0 -107 -28z" glyph-name="b" horiz-adv-x="528" unicode="b"/>
<glyph d="M258 -10q-147 0 -188 78q-22 41 -22 109v133q0 124 78 163q49 24 132 24q65 0 119 -18l-15 -100q-48 13 -101 13q-68 0 -84 -35q-7 -17 -7 -46v-135q0 -58 35 -73q21 -8 56 -8q51 0 101 13l15 -100q-53 -18 -119 -18z" glyph-name="c" horiz-adv-x="419" unicode="c"/>
<glyph d="M50 159v166q2 171 161 172q64 0 130 -14v203l122 17v-703h-97l-12 41q-71 -51 -154 -51q-135 0 -149 139q-1 15 -1 30zM341 138v242q-60 13 -108 13q-55 0 -60 -50q-1 -7 -1 -15v-172q0 -56 48 -61q6 -1 12 -1q58 0 105 41q3 2 4 3z" glyph-name="d" horiz-adv-x="533" unicode="d"/>
<glyph d="M170 172q0 -59 37 -74q22 -8 58 -8q73 0 149 23l19 -92q-82 -31 -179 -31q-174 0 -201 130q-5 26 -5 58v129q2 189 202 190q166 0 187 -143q4 -25 4 -53v-104h-271v-25zM170 319v-24h155v24q0 65 -48 75q-12 3 -26 3q-80 -2 -81 -78z" glyph-name="e" horiz-adv-x="481" unicode="e"/>
<glyph d="M363 692l-13 -94q-37 8 -70 8q-45 0 -53 -31q-2 -11 -2 -27v-61h124l-7 -97h-117v-390h-122v390h-78v97h78v68q0 130 113 148q20 3 42 3q56 0 105 -14z" glyph-name="f" horiz-adv-x="363" unicode="f"/>
<glyph d="M236 130q-19 0 -28 1q-28 -19 -29 -39q0 -18 25 -21h2q29 -3 141 -15q83 -9 99 -72q5 -20 5 -46q0 -82 -43 -112q-48 -33 -177 -33q-107 0 -188 25l15 91q84 -21 164 -21q94 0 109 16q7 8 7 23q0 27 -17 33q-10 4 -29 6q-34 4 -82 9q-35 4 -59 7q-72 8 -89 48 q-7 19 -7 45q1 47 51 83q-66 41 -66 131v46q3 142 148 159q23 3 48 3q43 0 83 -10h150v-61q-9 -2 -27 -8q-19 -5 -27 -7q17 -33 17 -76v-46q0 -150 -176 -159h-20zM318 331q0 55 -49 65q-15 3 -33 3q-69 0 -79 -46q-2 -11 -2 -22v-37q0 -54 48 -63q14 -3 33 -3q70 0 80 44 q2 11 2 22v37z" glyph-name="g" horiz-adv-x="489" unicode="g"/>
<glyph d="M480 0h-122v340q-2 38 -39 39q-49 -1 -127 -41v-338h-122v686l122 17v-253q93 44 178 47q109 -2 110 -144v-353z" glyph-name="h" horiz-adv-x="545" unicode="h"/>
<glyph d="M192 0h-122v487h122v-487zM192 556h-122v141h122v-141z" glyph-name="i" horiz-adv-x="262" unicode="i"/>
<glyph d="M68 487h122v-513q0 -52 -33 -92q-26 -31 -94 -89l-71 78q58 54 67 69q9 17 9 50v497zM190 556h-122v141h122v-141z" glyph-name="j" horiz-adv-x="255" unicode="j"/>
<glyph d="M192 0h-122v686l122 17v-703zM348 487h136l-143 -241l149 -246h-134l-147 246z" glyph-name="k" horiz-adv-x="508" unicode="k"/>
<glyph d="M192 0h-122v686l122 17v-703z" glyph-name="l" horiz-adv-x="262" unicode="l"/>
<glyph d="M480 0h-122v340q-2 38 -39 39q-49 -1 -127 -41v-338h-122v487h93l12 -41q104 50 195 51q67 -1 92 -52q104 49 196 52q109 -2 110 -144v-353h-122v340q-2 38 -39 39q-45 0 -112 -33q-8 -4 -15 -8v-338z" glyph-name="m" horiz-adv-x="833" unicode="m"/>
<glyph d="M480 0h-122v340q-2 38 -39 39q-49 -1 -127 -41v-338h-122v487h93l12 -41q104 50 195 51q109 -2 110 -144v-353z" glyph-name="n" horiz-adv-x="545" unicode="n"/>
<glyph d="M472 182q-9 -188 -212 -192q-210 3 -212 192v123q9 188 212 192q210 -3 212 -192v-123zM350 309q0 76 -72 83q-9 1 -18 1q-82 0 -89 -68q-1 -8 -1 -16v-131q0 -76 72 -83q9 -1 18 -1q82 0 89 68q1 8 1 16v131z" glyph-name="o" horiz-adv-x="520" unicode="o"/>
<glyph d="M483 328v-166q-2 -171 -161 -172q-64 0 -130 14v-201l-122 -17v701h97l12 -41q71 51 154 51q135 0 149 -139q1 -15 1 -30zM192 349v-242q60 -13 108 -13q55 0 60 50q1 7 1 15v172q0 56 -48 61q-6 1 -12 1q-58 0 -105 -41q-3 -2 -4 -3z" glyph-name="p" horiz-adv-x="533" unicode="p"/>
<glyph d="M50 157v143q0 113 57 157q54 40 167 40q103 0 189 -17v-677l-122 -17v233q-70 -29 -144 -29q-146 2 -147 167zM341 122v267q-30 4 -73 4q-76 0 -91 -46q-5 -17 -5 -43v-150q4 -58 62 -60q47 0 107 28z" glyph-name="q" horiz-adv-x="528" unicode="q"/>
<glyph d="M309 497l12 -112q-59 -27 -129 -71v-314h-122v487h103l8 -54q73 48 128 64z" glyph-name="r" horiz-adv-x="333" unicode="r"/>
<glyph d="M397 142q0 -93 -50 -125q-42 -27 -126 -27q-89 0 -168 28l17 93q72 -21 145 -21q50 0 58 21q4 10 4 28q0 29 -20 41t-65 23q-91 22 -115 57q-18 28 -18 96q0 91 60 121q43 20 122 20q81 0 146 -17l-12 -97q-74 14 -134 14q-51 0 -59 -21q-3 -9 -3 -21q0 -31 12 -39 t57 -20q101 -27 126 -53q22 -24 23 -91v-10z" glyph-name="s" horiz-adv-x="447" unicode="s"/>
<glyph d="M315 102l14 -93q-45 -18 -107 -19q-133 2 -134 129v271h-73v97h73v121l122 17v-138h125l-8 -97h-117v-255q2 -42 44 -43q27 0 61 10z" glyph-name="t" horiz-adv-x="355" unicode="t"/>
<glyph d="M65 487h122v-340q2 -38 39 -39q49 1 127 41v338h122v-487h-93l-12 41q-104 -50 -195 -51q-109 2 -110 144v353z" glyph-name="u" horiz-adv-x="545" unicode="u"/>
<glyph d="M478 487l-156 -487h-161l-156 487h125l111 -370l112 370h125z" glyph-name="v" horiz-adv-x="483" unicode="v"/>
<glyph d="M249 0h-141l-90 487h114l60 -326l97 326h127l96 -326l60 326h114l-90 -487h-141l-103 350z" glyph-name="w" horiz-adv-x="704" unicode="w"/>
<glyph d="M136 0h-124l157 245l-154 242h122l97 -148l96 148h122l-154 -242l158 -245h-125l-97 151z" glyph-name="x" horiz-adv-x="468" unicode="x"/>
<glyph d="M478 487l-156 -487l-65 -197h-116l61 197h-43l-154 487h125l111 -370l112 370h125z" glyph-name="y" horiz-adv-x="478" unicode="y"/>
<glyph d="M58 393v94h355v-94l-217 -299h224v-94h-365v94l217 299h-214z" glyph-name="z" horiz-adv-x="460" unicode="z"/>
<glyph d="M65 277h-20v94h20q41 2 42 40v232q0 128 97 144q16 3 33 3h83v-98h-51q-38 -6 -40 -41v-212q0 -93 -55 -110q-13 -4 -27 -5q72 -4 81 -86q1 -14 1 -29v-212q6 -39 40 -41h51v-98h-83q-113 0 -127 107q-3 19 -3 40v232q-2 39 -42 40z" glyph-name="braceleft" horiz-adv-x="340" unicode="{"/>
<glyph d="M165 790v-1000h-75v1000h75z" glyph-name="bar" horiz-adv-x="255" unicode="|"/>
<glyph d="M295 277h-20q-41 -2 -42 -40v-232q0 -128 -97 -144q-16 -3 -33 -3h-83v98h51q38 6 40 41v212q0 93 55 110q13 4 27 5q-72 4 -81 86q-1 14 -1 29v212q-6 39 -40 41h-51v98h83q113 0 127 -107q3 -19 3 -40v-232q2 -39 42 -40h20v-94z" glyph-name="braceright" horiz-adv-x="340" unicode="}"/>
<glyph d="M383 354l69 -38q-36 -106 -108 -120q-13 -3 -27 -3q-34 0 -92 39q-40 27 -56 27q-30 0 -48 -33q-4 -6 -10 -19q-5 -10 -7 -15l-69 38q29 76 54 99q28 24 73 24q29 0 85 -36q48 -31 70 -31q40 0 63 60q2 4 3 8z" glyph-name="asciitilde" horiz-adv-x="482" unicode="~"/>
<glyph glyph-name="nbspace" horiz-adv-x="210" unicode=" "/>
<glyph d="M106 273h72l25 -173v-297h-122v297zM80 347v140h124v-140h-124z" glyph-name="exclamdown" horiz-adv-x="284" unicode="¡"/>
<glyph d="M203 -10v93q-110 15 -137 101q-11 35 -11 83v133q0 126 81 165q28 13 67 18v93h84v-90q54 -4 97 -17l-15 -100q-48 13 -101 13q-68 0 -84 -35q-7 -17 -7 -46v-135q0 -58 35 -73q21 -8 56 -8q51 0 101 13l15 -100q-45 -15 -97 -18v-90h-84z" glyph-name="cent" horiz-adv-x="439" unicode="¢"/>
<glyph d="M60 277v97h81q-28 74 -28 120q9 159 208 162q85 0 166 -23l-15 -101q-73 17 -155 17q-65 0 -78 -34q-4 -13 -4 -29q0 -39 30 -112h188l-7 -97h-164q1 -9 1 -19q-1 -81 -62 -151h256v-107h-407v107q70 46 87 118q4 18 4 34v18h-101z" glyph-name="sterling" horiz-adv-x="542" unicode="£"/>
<glyph d="M454 403v-136q0 -34 -13 -58l67 -67l-73 -73l-75 75q-35 -11 -78 -11q-46 0 -80 11l-74 -75l-73 73l67 67q-12 26 -12 58v136q0 33 12 58l-67 67l73 73l74 -75q35 11 80 11q44 0 78 -11l75 75l73 -73l-67 -67q13 -25 13 -58zM349 388q0 45 -39 53q-12 2 -28 2 q-54 0 -64 -30q-3 -11 -3 -25v-106q0 -45 37 -53q13 -2 30 -2q54 0 64 32q3 10 3 23v106z" glyph-name="currency" horiz-adv-x="563" unicode="¤"/>
<glyph d="M55 283v81h83l-128 282h134l135 -316l135 316h134l-128 -282h83v-81h-120l-41 -90h161v-78h-161v-115h-126v115h-161v78h161l-41 90h-120z" glyph-name="yen" horiz-adv-x="558" unicode="¥"/>
<glyph d="M165 790v-417h-75v417h75zM165 -210h-75v417h75v-417z" glyph-name="brokenbar" horiz-adv-x="255" unicode="¦"/>
<glyph d="M264 29l-95 -29q-114 346 -114 552q2 123 145 124q80 0 171 -28l-16 -82q-95 22 -143 22q-44 0 -50 -28q-2 -9 -2 -18q0 -174 104 -513zM289 460l95 29q114 -346 114 -552q-2 -123 -145 -124q-80 0 -171 28l16 82q95 -22 143 -22q44 0 50 28q2 9 2 18q0 174 -104 513z " glyph-name="section" horiz-adv-x="548" unicode="§"/>
<glyph d="M60 554v105h101v-105h-101zM249 554v105h101v-105h-101z" glyph-name="dieresis" horiz-adv-x="410" unicode="¨"/>
<glyph d="M55 333q0 149 98 247q97 96 245 96q159 0 257 -109q86 -96 86 -234q0 -147 -97 -245t-246 -98q-159 0 -257 109q-86 97 -86 234zM140 333q0 -124 83 -199q72 -64 175 -64q131 0 204 95q54 72 54 168q0 126 -84 201q-71 62 -174 62q-130 0 -203 -94q-55 -71 -55 -169z M361 283q0 -34 19 -41q13 -5 38 -5q39 0 81 11l11 -73q-46 -16 -101 -16q-110 0 -132 68q-6 21 -6 48v116q0 88 72 108q28 8 66 8q56 0 101 -16l-11 -73q-43 11 -81 11q-46 0 -54 -21q-3 -10 -3 -25v-100z" glyph-name="copyright" horiz-adv-x="796" unicode="©"/>
<glyph d="M315 585v-203h-63l-5 21q-43 -27 -92 -27q-68 0 -79 70q-1 11 -1 22q0 70 53 82q16 4 37 4h73v32q0 34 -20 41q-14 5 -38 5q-37 0 -85 -9l-10 58q49 15 106 15q92 0 114 -50q10 -23 10 -61zM238 453v45h-56q-28 0 -32 -16q-1 -6 -1 -14q6 -29 31 -31q30 0 58 16z" glyph-name="ordfeminine" horiz-adv-x="385" unicode="ª"/>
<glyph d="M35 244l127 193l81 -51l-93 -142l93 -142l-81 -51zM241 244l127 193l81 -51l-93 -142l93 -142l-81 -51z" glyph-name="guillemotleft" horiz-adv-x="504" unicode="«"/>
<glyph d="M60 247v96h408v-255h-100v159h-308z" glyph-name="logicalnot" horiz-adv-x="543" unicode="¬"/>
<glyph d="M55 515q0 95 69 147q47 34 111 34q101 0 151 -77q30 -46 30 -104q0 -92 -67 -145q-48 -37 -114 -37q-100 0 -150 77q-30 46 -30 105zM108 515q0 -81 58 -115q30 -18 69 -18q85 0 116 71q12 29 12 62q0 80 -58 114q-30 18 -70 18q-87 0 -116 -73q-11 -27 -11 -59zM276 436 l-39 54h-25v-54h-36v166h68q53 -2 54 -47v-18q-1 -29 -23 -40l43 -61h-42zM262 552q-4 16 -20 17h-30v-46h30q19 2 20 17v12z" glyph-name="registered" horiz-adv-x="471" unicode="®"/>
<glyph d="M55 557v81h250v-81h-250z" glyph-name="macron" horiz-adv-x="360" unicode="¯"/>
<glyph d="M307 529q0 -72 -56 -107q-32 -19 -72 -19q-80 0 -114 62q-15 29 -15 64q0 72 56 107q32 20 73 20q79 0 112 -63q16 -29 16 -64zM240 529q0 53 -41 65q-10 3 -20 3q-50 0 -60 -49q-2 -9 -2 -19q0 -48 37 -63q12 -4 25 -4q45 0 58 44q3 11 3 23z" glyph-name="degree" horiz-adv-x="357" unicode="°"/>
<glyph d="M483 92v-92h-408v92h408zM75 305v96h154v155h100v-155h154v-96h-154v-155h-100v155h-154z" glyph-name="plusminus" horiz-adv-x="558" unicode="±"/>
<glyph d="M72 243v69q18 20 47 51q28 30 48 52q45 50 55 66t10 35v1v18q0 30 -21 36q-10 2 -25 2q-47 0 -105 -15l-16 78q59 20 130 20q104 0 123 -65q5 -20 5 -44v-17q0 -47 -16 -76q-12 -20 -32 -44q-65 -75 -78 -89h133v-78h-258z" glyph-name="twosuperior" horiz-adv-x="400" unicode="²"/>
<glyph d="M75 249l7 69q54 -8 112 -8q40 0 43 26q1 5 1 10v31q-8 32 -40 35h-99v69h94q37 1 38 33v31q0 29 -22 34q-12 3 -31 3q-41 0 -90 -7l-8 69q52 12 102 12q119 0 134 -72q3 -14 3 -29v-30q0 -43 -22 -62q-10 -7 -23 -14q42 -14 50 -50q2 -13 2 -30v-26q0 -75 -56 -96 q-32 -12 -81 -12q-68 0 -114 14z" glyph-name="threesuperior" horiz-adv-x="396" unicode="³"/>
<glyph d="M104 539l-44 68q74 46 146 98l48 -74q-88 -58 -150 -92z" glyph-name="acute" horiz-adv-x="314" unicode="´"/>
<glyph d="M65 -197v684h122v-340q2 -38 39 -39q49 1 127 41v338h122v-487h-93l-12 41q-94 -46 -183 -51v-187h-122z" glyph-name="mu" horiz-adv-x="545" unicode="µ"/>
<glyph d="M344 666h97v-677q0 -41 -22 -70q-20 -26 -129 -126l-59 67q95 89 106 109q7 13 7 32v665zM45 447q0 106 78 170q61 49 142 49v-437q-106 0 -170 77q-50 60 -50 141z" glyph-name="paragraph" horiz-adv-x="526" unicode="¶"/>
<glyph d="M75 256v140h124v-140h-124z" glyph-name="periodcentered" horiz-adv-x="274" unicode="·"/>
<glyph d="M245 -119q0 -68 -78 -79q-14 -2 -29 -2q-45 0 -83 15l10 47q31 -9 65 -9q46 7 49 29q-6 23 -38 24q-13 0 -31 -2l-29 14l21 97h57l-13 -68q16 2 28 2q59 1 69 -50q2 -9 2 -18z" glyph-name="cedilla" horiz-adv-x="300" unicode="¸"/>
<glyph d="M78 501l-33 71l135 74h72v-405h-91v301z" glyph-name="onesuperior" horiz-adv-x="347" unicode="¹"/>
<glyph d="M327 497q-2 -120 -134 -121q-132 1 -133 121v78q2 120 133 121q133 -1 134 -121v-78zM250 577q-4 51 -57 53q-53 -7 -56 -53v-82q8 -50 56 -53q55 4 57 53v82z" glyph-name="ordmasculine" horiz-adv-x="387" unicode="º"/>
<glyph d="M342 437l127 -193l-127 -193l-81 51l93 142l-93 142zM136 437l127 -193l-127 -193l-81 51l93 142l-93 142z" glyph-name="guillemotright" horiz-adv-x="504" unicode="»"/>
<glyph d="M798 81h-59v-81h-87v81h-183v66l146 258h124v-253h59v-71zM559 152h93v176zM590 656l-298 -696l-70 30l299 696zM83 501l-33 71l135 74h72v-405h-91v301z" glyph-name="onequarter" horiz-adv-x="858" unicode="¼"/>
<glyph d="M590 656l-298 -696l-70 30l299 696zM83 501l-33 71l135 74h72v-405h-91v301zM546 0v69q18 20 47 51q28 30 48 52q45 50 55 66t10 35v1v18q0 30 -21 36q-10 2 -25 2q-47 0 -105 -15l-16 78q59 20 130 20q104 0 123 -65q5 -20 5 -44v-17q0 -47 -16 -76q-12 -20 -32 -44 q-65 -75 -78 -89h133v-78h-258z" glyph-name="onehalf" horiz-adv-x="884" unicode="½"/>
<glyph d="M75 249l7 69q54 -8 112 -8q40 0 43 26q1 5 1 10v31q-8 32 -40 35h-99v69h94q37 1 38 33v31q0 29 -22 34q-12 3 -31 3q-41 0 -90 -7l-8 69q52 12 102 12q119 0 134 -72q3 -14 3 -29v-30q0 -43 -22 -62q-10 -7 -23 -14q42 -14 50 -50q2 -13 2 -30v-26q0 -75 -56 -96 q-32 -12 -81 -12q-68 0 -114 14zM831 81h-59v-81h-87v81h-183v66l146 258h124v-253h59v-71zM592 152h93v176zM623 656l-298 -696l-70 30l299 696z" glyph-name="threequarters" horiz-adv-x="891" unicode="¾"/>
<glyph d="M262 271l69 -93q-46 -36 -92 -73q-48 -38 -56 -62q-6 -17 -6 -57q0 -56 28 -71q23 -13 75 -13q71 0 143 18l18 -105q-85 -22 -174 -22q-144 0 -186 64q-26 41 -26 122q0 85 16 120q18 35 65 74q37 30 126 98zM344 487v-140h-124v140h124z" glyph-name="questiondown" unicode="¿"/>
<glyph d="M489 0l-43 138h-247l-42 -138h-132l210 666h176l210 -666h-132zM323 562l-93 -315h184zM380 777l-44 -68q-82 44 -136 83l48 74q43 -34 132 -89z" glyph-name="Agrave" horiz-adv-x="646" unicode="À"/>
<glyph d="M489 0l-43 138h-247l-42 -138h-132l210 666h176l210 -666h-132zM323 562l-93 -315h184zM318 709l-44 68q89 55 133 89l47 -74q-59 -43 -136 -83z" glyph-name="Aacute" horiz-adv-x="646" unicode="Á"/>
<glyph d="M489 0l-43 138h-247l-42 -138h-132l210 666h176l210 -666h-132zM323 562l-93 -315h184zM231 709l-35 56q65 44 127 91q72 -54 127 -91l-34 -56q-46 21 -93 49q-48 -28 -92 -49z" glyph-name="Acircumflex" horiz-adv-x="646" unicode="Â"/>
<glyph d="M489 0l-43 138h-247l-42 -138h-132l210 666h176l210 -666h-132zM323 562l-93 -315h184zM316 739q-34 20 -49 21q-22 0 -47 -36q-1 0 -2 -2t-2 -3l-50 41q44 75 99 78q30 -1 63 -20q38 -22 52 -22q28 2 41 37l58 -30q-25 -76 -88 -83q-6 -1 -11 -1q-35 1 -64 20z" glyph-name="Atilde" horiz-adv-x="646" unicode="Ã"/>
<glyph d="M489 0l-43 138h-247l-42 -138h-132l210 666h176l210 -666h-132zM323 562l-93 -315h184zM176 726v97h102v-97h-102zM369 726v97h102v-97h-102z" glyph-name="Adieresis" horiz-adv-x="646" unicode="Ä"/>
<glyph d="M489 0l-43 138h-247l-42 -138h-132l210 666h176l210 -666h-132zM323 562l-93 -315h184zM405 782q0 -49 -43 -70q-18 -8 -39 -8q-60 0 -77 49q-5 14 -5 29q0 51 44 71q18 8 38 8q56 0 76 -46q6 -16 6 -33zM356 782q-2 34 -33 35q-32 -2 -33 -35q5 -31 33 -34q30 5 33 34z " glyph-name="Aring" horiz-adv-x="646" unicode="Å"/>
<glyph d="M489 0l-43 138h-247l-42 -138h-132l210 666h572v-111h-361l51 -161h288v-111h-253l54 -172h221v-111h-318zM323 562l-93 -315h184z" glyph-name="AE" horiz-adv-x="862" unicode="Æ"/>
<glyph d="M403 -119q0 -68 -78 -79q-14 -2 -29 -2q-45 0 -83 15l10 47q31 -9 65 -9q46 7 49 29q-6 23 -38 24q-13 0 -31 -2l-29 14l16 74q-194 17 -195 191v300q2 192 237 193q95 0 181 -22l-14 -109q-92 17 -163 17q-87 0 -107 -48q-8 -22 -8 -53v-256q0 -72 48 -91q26 -10 67 -10 q72 0 163 17l14 -109q-81 -20 -166 -22l-8 -43q16 2 28 2q59 1 69 -50q2 -9 2 -18z" glyph-name="Ccedilla" horiz-adv-x="523" unicode="Ç"/>
<glyph d="M75 0v666h408v-111h-282v-161h260v-111h-260v-172h282v-111h-408zM343 777l-44 -68q-82 44 -136 83l48 74q43 -34 132 -89z" glyph-name="Egrave" horiz-adv-x="538" unicode="È"/>
<glyph d="M75 0v666h408v-111h-282v-161h260v-111h-260v-172h282v-111h-408zM258 709l-44 68q89 55 133 89l47 -74q-59 -43 -136 -83z" glyph-name="Eacute" horiz-adv-x="538" unicode="É"/>
<glyph d="M75 0v666h408v-111h-282v-161h260v-111h-260v-172h282v-111h-408zM193 709l-35 56q65 44 127 91q72 -54 127 -91l-34 -56q-46 21 -93 49q-48 -28 -92 -49z" glyph-name="Ecircumflex" horiz-adv-x="538" unicode="Ê"/>
<glyph d="M75 0v666h408v-111h-282v-161h260v-111h-260v-172h282v-111h-408zM125 726v97h102v-97h-102zM318 726v97h102v-97h-102z" glyph-name="Edieresis" horiz-adv-x="538" unicode="Ë"/>
<glyph d="M206 666v-666h-126v666h126zM193 777l-44 -68q-82 44 -136 83l48 74q43 -34 132 -89z" glyph-name="Igrave" horiz-adv-x="286" unicode="Ì"/>
<glyph d="M206 666v-666h-126v666h126zM137 709l-44 68q89 55 133 89l47 -74q-59 -43 -136 -83z" glyph-name="Iacute" horiz-adv-x="286" unicode="Í"/>
<glyph d="M206 666v-666h-126v666h126zM51 709l-35 56q65 44 127 91q72 -54 127 -91l-34 -56q-46 21 -93 49q-48 -28 -92 -49z" glyph-name="Icircumflex" horiz-adv-x="286" unicode="Î"/>
<glyph d="M206 666v-666h-126v666h126zM-4 726v97h102v-97h-102zM189 726v97h102v-97h-102z" glyph-name="Idieresis" horiz-adv-x="286" unicode="Ï"/>
<glyph d="M40 286v101h69v279h248q176 0 213 -120q8 -28 8 -59v-308q0 -119 -106 -160q-48 -19 -115 -19h-248v286h-69zM235 555v-168h102v-101h-102v-175h109q85 0 102 53q6 19 6 45v248q0 71 -48 89q-24 9 -60 9h-109z" glyph-name="Eth" horiz-adv-x="638" unicode="Ð"/>
<glyph d="M451 0l-253 505v-505h-123v666h168l253 -506v506h123v-666h-168zM339 739q-34 20 -49 21q-22 0 -47 -36q-1 0 -2 -2t-2 -3l-50 41q44 75 99 78q30 -1 63 -20q38 -22 52 -22q28 2 41 37l58 -30q-25 -76 -88 -83q-6 -1 -11 -1q-35 1 -64 20z" glyph-name="Ntilde" horiz-adv-x="694" unicode="Ñ"/>
<glyph d="M564 471v-276q0 -145 -133 -189q-52 -16 -119 -16q-204 0 -244 140q-8 31 -8 65v276q0 145 133 189q52 16 119 16q204 0 244 -140q8 -31 8 -65zM186 464v-262q0 -86 89 -99q18 -2 37 -2q115 0 125 82q1 10 1 19v262q0 86 -89 99q-18 2 -37 2q-115 0 -125 -82 q-1 -10 -1 -19zM356 777l-44 -68q-82 44 -136 83l48 74q43 -34 132 -89z" glyph-name="Ograve" horiz-adv-x="624" unicode="Ò"/>
<glyph d="M564 471v-276q0 -145 -133 -189q-52 -16 -119 -16q-204 0 -244 140q-8 31 -8 65v276q0 145 133 189q52 16 119 16q204 0 244 -140q8 -31 8 -65zM186 464v-262q0 -86 89 -99q18 -2 37 -2q115 0 125 82q1 10 1 19v262q0 86 -89 99q-18 2 -37 2q-115 0 -125 -82 q-1 -10 -1 -19zM294 709l-44 68q89 55 133 89l47 -74q-59 -43 -136 -83z" glyph-name="Oacute" horiz-adv-x="624" unicode="Ó"/>
<glyph d="M564 471v-276q0 -145 -133 -189q-52 -16 -119 -16q-204 0 -244 140q-8 31 -8 65v276q0 145 133 189q52 16 119 16q204 0 244 -140q8 -31 8 -65zM186 464v-262q0 -86 89 -99q18 -2 37 -2q115 0 125 82q1 10 1 19v262q0 86 -89 99q-18 2 -37 2q-115 0 -125 -82 q-1 -10 -1 -19zM220 709l-35 56q65 44 127 91q72 -54 127 -91l-34 -56q-46 21 -93 49q-48 -28 -92 -49z" glyph-name="Ocircumflex" horiz-adv-x="624" unicode="Ô"/>
<glyph d="M564 471v-276q0 -145 -133 -189q-52 -16 -119 -16q-204 0 -244 140q-8 31 -8 65v276q0 145 133 189q52 16 119 16q204 0 244 -140q8 -31 8 -65zM186 464v-262q0 -86 89 -99q18 -2 37 -2q115 0 125 82q1 10 1 19v262q0 86 -89 99q-18 2 -37 2q-115 0 -125 -82 q-1 -10 -1 -19zM300 739q-34 20 -49 21q-22 0 -47 -36q-1 0 -2 -2t-2 -3l-50 41q44 75 99 78q30 -1 63 -20q38 -22 52 -22q28 2 41 37l58 -30q-25 -76 -88 -83q-6 -1 -11 -1q-35 1 -64 20z" glyph-name="Otilde" horiz-adv-x="624" unicode="Õ"/>
<glyph d="M564 471v-276q0 -145 -133 -189q-52 -16 -119 -16q-204 0 -244 140q-8 31 -8 65v276q0 145 133 189q52 16 119 16q204 0 244 -140q8 -31 8 -65zM186 464v-262q0 -86 89 -99q18 -2 37 -2q115 0 125 82q1 10 1 19v262q0 86 -89 99q-18 2 -37 2q-115 0 -125 -82 q-1 -10 -1 -19zM164 726v97h102v-97h-102zM357 726v97h102v-97h-102z" glyph-name="Odieresis" horiz-adv-x="624" unicode="Ö"/>
<glyph d="M364 427l71 -71l-117 -116l117 -117l-71 -71l-117 117l-116 -117l-71 71l117 117l-117 116l71 71l116 -117z" glyph-name="multiply" horiz-adv-x="495" unicode="×"/>
<glyph d="M60 -30l51 85q-51 53 -51 140v276q0 145 133 189q52 16 119 16q92 0 152 -30l48 80l52 -30l-51 -86q51 -53 51 -139v-276q0 -145 -133 -189q-52 -16 -119 -16q-94 0 -152 30l-48 -80zM438 464q0 13 -1 19l-216 -361q31 -21 91 -21q115 0 125 82q1 10 1 19v262zM186 464 v-262q0 -13 1 -19l216 361q-33 21 -91 21q-115 0 -125 -82q-1 -10 -1 -19z" glyph-name="Oslash" horiz-adv-x="624" unicode="Ø"/>
<glyph d="M436 666h126v-473q0 -136 -119 -182q-53 -21 -127 -21q-195 0 -236 135q-10 32 -10 68v473h126v-463q0 -85 80 -99q19 -3 40 -3q106 0 118 76q2 13 2 26v463zM374 777l-44 -68q-82 44 -136 83l48 74q43 -34 132 -89z" glyph-name="Ugrave" horiz-adv-x="632" unicode="Ù"/>
<glyph d="M436 666h126v-473q0 -136 -119 -182q-53 -21 -127 -21q-195 0 -236 135q-10 32 -10 68v473h126v-463q0 -85 80 -99q19 -3 40 -3q106 0 118 76q2 13 2 26v463zM290 709l-44 68q89 55 133 89l47 -74q-59 -43 -136 -83z" glyph-name="Uacute" horiz-adv-x="632" unicode="Ú"/>
<glyph d="M436 666h126v-473q0 -136 -119 -182q-53 -21 -127 -21q-195 0 -236 135q-10 32 -10 68v473h126v-463q0 -85 80 -99q19 -3 40 -3q106 0 118 76q2 13 2 26v463zM224 709l-35 56q65 44 127 91q72 -54 127 -91l-34 -56q-46 21 -93 49q-48 -28 -92 -49z" glyph-name="Ucircumflex" horiz-adv-x="632" unicode="Û"/>
<glyph d="M436 666h126v-473q0 -136 -119 -182q-53 -21 -127 -21q-195 0 -236 135q-10 32 -10 68v473h126v-463q0 -85 80 -99q19 -3 40 -3q106 0 118 76q2 13 2 26v463zM169 726v97h102v-97h-102zM362 726v97h102v-97h-102z" glyph-name="Udieresis" horiz-adv-x="632" unicode="Ü"/>
<glyph d="M283 330l144 336h134l-215 -473v-193h-126v193l-215 473h134zM265 709l-44 68q89 55 133 89l47 -74q-59 -43 -136 -83z" glyph-name="Yacute" horiz-adv-x="566" unicode="Ý"/>
<glyph d="M75 0v666h126v-106h134q169 0 202 -109q9 -31 9 -71v-91q0 -146 -141 -173q-34 -6 -76 -6h-128v-110h-126zM420 370q0 60 -45 74q-20 5 -47 5h-127v-228h127q74 0 88 45q4 15 4 36v68z" glyph-name="Thorn" horiz-adv-x="576" unicode="Þ"/>
<glyph d="M299 334q0 37 27 84q4 8 9 16q38 66 40 94v11q0 53 -62 63q-13 2 -27 2q-93 -2 -94 -88v-516h-122v521q0 140 129 175q38 10 85 10q159 0 201 -99q12 -30 12 -66q-1 -56 -39 -120q-36 -62 -37 -81q0 -22 43 -59q9 -7 18 -15q65 -54 77 -76q13 -22 13 -66q0 -91 -60 -118 q-36 -16 -96 -16q-68 0 -124 18l14 93q43 -12 97 -12q40 0 46 22q1 6 1 13q0 21 -15 35q-10 10 -56 46q-63 51 -74 85q-6 18 -6 44z" glyph-name="germandbls" horiz-adv-x="612" unicode="ß"/>
<glyph d="M431 321v-321h-100l-9 33q-66 -43 -145 -43q-102 0 -123 99q-4 22 -4 46q0 102 70 127q29 10 72 10h117v51q0 50 -27 63q-21 10 -66 10q-64 0 -135 -15l-15 93q76 23 167 23q136 0 175 -66q23 -39 23 -110zM309 112v72h-90q-41 0 -48 -23q-3 -10 -3 -25q0 -41 29 -47 q9 -2 20 -2q48 0 92 25zM325 607l-45 -68q-63 36 -149 92l48 74q65 -48 146 -98z" glyph-name="agrave" unicode="à"/>
<glyph d="M431 321v-321h-100l-9 33q-66 -43 -145 -43q-102 0 -123 99q-4 22 -4 46q0 102 70 127q29 10 72 10h117v51q0 50 -27 63q-21 10 -66 10q-64 0 -135 -15l-15 93q76 23 167 23q136 0 175 -66q23 -39 23 -110zM309 112v72h-90q-41 0 -48 -23q-3 -10 -3 -25q0 -41 29 -47 q9 -2 20 -2q48 0 92 25zM212 539l-44 68q74 46 146 98l48 -74q-88 -58 -150 -92z" glyph-name="aacute" unicode="á"/>
<glyph d="M431 321v-321h-100l-9 33q-66 -43 -145 -43q-102 0 -123 99q-4 22 -4 46q0 102 70 127q29 10 72 10h117v51q0 50 -27 63q-21 10 -66 10q-64 0 -135 -15l-15 93q76 23 167 23q136 0 175 -66q23 -39 23 -110zM309 112v72h-90q-41 0 -48 -23q-3 -10 -3 -25q0 -41 29 -47 q9 -2 20 -2q48 0 92 25zM152 533l-39 54q68 49 140 109q80 -66 139 -109l-38 -54q-50 29 -101 65q-47 -33 -101 -65z" glyph-name="acircumflex" unicode="â"/>
<glyph d="M431 321v-321h-100l-9 33q-66 -43 -145 -43q-102 0 -123 99q-4 22 -4 46q0 102 70 127q29 10 72 10h117v51q0 50 -27 63q-21 10 -66 10q-64 0 -135 -15l-15 93q76 23 167 23q136 0 175 -66q23 -39 23 -110zM309 112v72h-90q-41 0 -48 -23q-3 -10 -3 -25q0 -41 29 -47 q9 -2 20 -2q48 0 92 25zM242 567q-31 21 -49 21q-21 0 -47 -35q-3 -4 -4 -5l-50 41q44 75 99 77q32 -1 63 -20q36 -21 52 -21q28 2 41 37l58 -30q-25 -76 -88 -83q-6 -1 -11 -1q-34 1 -64 19z" glyph-name="atilde" unicode="ã"/>
<glyph d="M431 321v-321h-100l-9 33q-66 -43 -145 -43q-102 0 -123 99q-4 22 -4 46q0 102 70 127q29 10 72 10h117v51q0 50 -27 63q-21 10 -66 10q-64 0 -135 -15l-15 93q76 23 167 23q136 0 175 -66q23 -39 23 -110zM309 112v72h-90q-41 0 -48 -23q-3 -10 -3 -25q0 -41 29 -47 q9 -2 20 -2q48 0 92 25zM108 554v105h101v-105h-101zM297 554v105h101v-105h-101z" glyph-name="adieresis" unicode="ä"/>
<glyph d="M431 321v-321h-100l-9 33q-66 -43 -145 -43q-102 0 -123 99q-4 22 -4 46q0 102 70 127q29 10 72 10h117v51q0 50 -27 63q-21 10 -66 10q-64 0 -135 -15l-15 93q76 23 167 23q136 0 175 -66q23 -39 23 -110zM309 112v72h-90q-41 0 -48 -23q-3 -10 -3 -25q0 -41 29 -47 q9 -2 20 -2q48 0 92 25zM335 620q0 -56 -47 -77q-19 -9 -42 -9q-65 0 -84 53q-5 16 -5 33q0 56 47 77q19 8 42 8q64 0 83 -52q6 -16 6 -33zM282 620q-7 34 -36 38q-30 0 -35 -29q-1 -5 -1 -9q0 -33 28 -38q4 -1 8 -1q29 0 35 29q1 5 1 10z" glyph-name="aring" unicode="å"/>
<glyph d="M431 172q0 -59 37 -74q22 -8 58 -8q73 0 149 23l19 -92q-82 -31 -179 -31q-109 1 -160 49q-78 -49 -167 -49q-112 0 -134 101q-4 21 -4 44q0 102 70 127q29 10 72 10h117v51q0 50 -27 63q-21 10 -66 10q-64 0 -135 -15l-15 93q76 23 167 23q83 -1 145 -45q63 45 133 45 q166 0 187 -143q4 -25 4 -53v-104h-271v-25zM431 319v-24h155v24q0 65 -48 75q-12 3 -26 3q-80 -2 -81 -78zM217 87q52 0 98 26q-6 29 -6 65v6h-90q-41 0 -48 -23q-3 -10 -3 -25q0 -41 29 -47q9 -2 20 -2z" glyph-name="ae" horiz-adv-x="742" unicode="æ"/>
<glyph d="M346 -119q0 -68 -78 -79q-14 -2 -29 -2q-45 0 -83 15l10 47q31 -9 65 -9q46 7 49 29q-6 23 -38 24q-13 0 -31 -2l-29 14l16 76q-113 14 -140 101q-10 35 -10 82v133q0 124 78 163q49 24 132 24q65 0 119 -18l-15 -100q-48 13 -101 13q-68 0 -84 -35q-7 -17 -7 -46v-135 q0 -58 35 -73q21 -8 56 -8q51 0 101 13l15 -100q-53 -18 -119 -18h-3l-8 -43q16 2 28 2q59 1 69 -50q2 -9 2 -18z" glyph-name="ccedilla" horiz-adv-x="419" unicode="ç"/>
<glyph d="M170 172q0 -59 37 -74q22 -8 58 -8q73 0 149 23l19 -92q-82 -31 -179 -31q-174 0 -201 130q-5 26 -5 58v129q2 189 202 190q166 0 187 -143q4 -25 4 -53v-104h-271v-25zM170 319v-24h155v24q0 65 -48 75q-12 3 -26 3q-80 -2 -81 -78zM314 607l-45 -68q-63 36 -149 92 l48 74q65 -48 146 -98z" glyph-name="egrave" horiz-adv-x="481" unicode="è"/>
<glyph d="M170 172q0 -59 37 -74q22 -8 58 -8q73 0 149 23l19 -92q-82 -31 -179 -31q-174 0 -201 130q-5 26 -5 58v129q2 189 202 190q166 0 187 -143q4 -25 4 -53v-104h-271v-25zM170 319v-24h155v24q0 65 -48 75q-12 3 -26 3q-80 -2 -81 -78zM209 539l-44 68q74 46 146 98l48 -74 q-88 -58 -150 -92z" glyph-name="eacute" horiz-adv-x="481" unicode="é"/>
<glyph d="M170 172q0 -59 37 -74q22 -8 58 -8q73 0 149 23l19 -92q-82 -31 -179 -31q-174 0 -201 130q-5 26 -5 58v129q2 189 202 190q166 0 187 -143q4 -25 4 -53v-104h-271v-25zM170 319v-24h155v24q0 65 -48 75q-12 3 -26 3q-80 -2 -81 -78zM148 533l-39 54q68 49 140 109 q80 -66 139 -109l-38 -54q-50 29 -101 65q-47 -33 -101 -65z" glyph-name="ecircumflex" horiz-adv-x="481" unicode="ê"/>
<glyph d="M170 172q0 -59 37 -74q22 -8 58 -8q73 0 149 23l19 -92q-82 -31 -179 -31q-174 0 -201 130q-5 26 -5 58v129q2 189 202 190q166 0 187 -143q4 -25 4 -53v-104h-271v-25zM170 319v-24h155v24q0 65 -48 75q-12 3 -26 3q-80 -2 -81 -78zM106 554v105h101v-105h-101zM295 554 v105h101v-105h-101z" glyph-name="edieresis" horiz-adv-x="481" unicode="ë"/>
<glyph d="M192 0h-122v487h122v-487zM182 607l-45 -68q-63 36 -149 92l48 74q65 -48 146 -98z" glyph-name="igrave" horiz-adv-x="262" unicode="ì"/>
<glyph d="M192 0h-122v487h122v-487zM127 539l-44 68q74 46 146 98l48 -74q-88 -58 -150 -92z" glyph-name="iacute" horiz-adv-x="262" unicode="í"/>
<glyph d="M192 0h-122v487h122v-487zM31 533l-39 54q68 49 140 109q80 -66 139 -109l-38 -54q-50 29 -101 65q-47 -33 -101 -65z" glyph-name="icircumflex" horiz-adv-x="262" unicode="î"/>
<glyph d="M192 0h-122v487h122v-487zM-14 554v105h101v-105h-101zM175 554v105h101v-105h-101z" glyph-name="idieresis" horiz-adv-x="262" unicode="ï"/>
<glyph d="M142 500l67 53q-39 18 -111 36l21 96q103 -17 174 -58l58 45l38 -43l-46 -36q70 -59 90 -133q11 -45 11 -104v-189q0 -123 -88 -159q-43 -18 -108 -18q-152 0 -186 87q-12 33 -12 80v70q0 127 69 164q37 19 96 19q53 0 106 -21q-1 82 -56 129q-2 1 -3 2l-82 -64zM246 94 q55 0 68 27q8 18 8 53v109q-42 23 -89 23q-56 0 -62 -48q-1 -8 -1 -16v-76q0 -52 25 -64q18 -8 51 -8z" glyph-name="eth" horiz-adv-x="504" unicode="ð"/>
<glyph d="M480 0h-122v340q-2 38 -39 39q-49 -1 -127 -41v-338h-122v487h93l12 -41q104 50 195 51q109 -2 110 -144v-353zM267 567q-31 21 -49 21q-21 0 -47 -35q-3 -4 -4 -5l-50 41q44 75 99 77q32 -1 63 -20q36 -21 52 -21q28 2 41 37l58 -30q-25 -76 -88 -83q-6 -1 -11 -1 q-34 1 -64 19z" glyph-name="ntilde" horiz-adv-x="545" unicode="ñ"/>
<glyph d="M472 182q-9 -188 -212 -192q-210 3 -212 192v123q9 188 212 192q210 -3 212 -192v-123zM350 309q0 76 -72 83q-9 1 -18 1q-82 0 -89 -68q-1 -8 -1 -16v-131q0 -76 72 -83q9 -1 18 -1q82 0 89 68q1 8 1 16v131zM321 607l-45 -68q-63 36 -149 92l48 74q65 -48 146 -98z" glyph-name="ograve" horiz-adv-x="520" unicode="ò"/>
<glyph d="M472 182q-9 -188 -212 -192q-210 3 -212 192v123q9 188 212 192q210 -3 212 -192v-123zM350 309q0 76 -72 83q-9 1 -18 1q-82 0 -89 -68q-1 -8 -1 -16v-131q0 -76 72 -83q9 -1 18 -1q82 0 89 68q1 8 1 16v131zM235 539l-44 68q74 46 146 98l48 -74q-88 -58 -150 -92z" glyph-name="oacute" horiz-adv-x="520" unicode="ó"/>
<glyph d="M472 182q-9 -188 -212 -192q-210 3 -212 192v123q9 188 212 192q210 -3 212 -192v-123zM350 309q0 76 -72 83q-9 1 -18 1q-82 0 -89 -68q-1 -8 -1 -16v-131q0 -76 72 -83q9 -1 18 -1q82 0 89 68q1 8 1 16v131zM160 533l-39 54q68 49 140 109q80 -66 139 -109l-38 -54 q-50 29 -101 65q-47 -33 -101 -65z" glyph-name="ocircumflex" horiz-adv-x="520" unicode="ô"/>
<glyph d="M472 182q-9 -188 -212 -192q-210 3 -212 192v123q9 188 212 192q210 -3 212 -192v-123zM350 309q0 76 -72 83q-9 1 -18 1q-82 0 -89 -68q-1 -8 -1 -16v-131q0 -76 72 -83q9 -1 18 -1q82 0 89 68q1 8 1 16v131zM255 567q-31 21 -49 21q-21 0 -47 -35q-3 -4 -4 -5l-50 41 q44 75 99 77q32 -1 63 -20q36 -21 52 -21q28 2 41 37l58 -30q-25 -76 -88 -83q-6 -1 -11 -1q-34 1 -64 19z" glyph-name="otilde" horiz-adv-x="520" unicode="õ"/>
<glyph d="M472 182q-9 -188 -212 -192q-210 3 -212 192v123q9 188 212 192q210 -3 212 -192v-123zM350 309q0 76 -72 83q-9 1 -18 1q-82 0 -89 -68q-1 -8 -1 -16v-131q0 -76 72 -83q9 -1 18 -1q82 0 89 68q1 8 1 16v131zM115 554v105h101v-105h-101zM304 554v105h101v-105h-101z " glyph-name="odieresis" horiz-adv-x="520" unicode="ö"/>
<glyph d="M477 285v-82h-412v82h412zM213 11v121h116v-121h-116zM213 355v121h116v-121h-116z" glyph-name="divide" horiz-adv-x="542" unicode="÷"/>
<glyph d="M48 -22l46 67q-46 50 -46 137v123q9 188 212 192q76 0 124 -25l44 64l43 -28l-46 -67q47 -49 47 -136v-123q-9 -188 -212 -192q-77 0 -125 25l-44 -65zM350 309q0 14 -1 20l-150 -221q23 -14 61 -14q82 0 89 68q1 8 1 16v131zM170 178q0 -14 1 -20l150 220q-22 15 -61 15 q-82 0 -89 -68q-1 -8 -1 -16v-131z" glyph-name="oslash" horiz-adv-x="520" unicode="ø"/>
<glyph d="M65 487h122v-340q2 -38 39 -39q49 1 127 41v338h122v-487h-93l-12 41q-104 -50 -195 -51q-109 2 -110 144v353zM334 607l-45 -68q-63 36 -149 92l48 74q65 -48 146 -98z" glyph-name="ugrave" horiz-adv-x="545" unicode="ù"/>
<glyph d="M65 487h122v-340q2 -38 39 -39q49 1 127 41v338h122v-487h-93l-12 41q-104 -50 -195 -51q-109 2 -110 144v353zM248 539l-44 68q74 46 146 98l48 -74q-88 -58 -150 -92z" glyph-name="uacute" horiz-adv-x="545" unicode="ú"/>
<glyph d="M65 487h122v-340q2 -38 39 -39q49 1 127 41v338h122v-487h-93l-12 41q-104 -50 -195 -51q-109 2 -110 144v353zM173 533l-39 54q68 49 140 109q80 -66 139 -109l-38 -54q-50 29 -101 65q-47 -33 -101 -65z" glyph-name="ucircumflex" horiz-adv-x="545" unicode="û"/>
<glyph d="M65 487h122v-340q2 -38 39 -39q49 1 127 41v338h122v-487h-93l-12 41q-104 -50 -195 -51q-109 2 -110 144v353zM131 554v105h101v-105h-101zM320 554v105h101v-105h-101z" glyph-name="udieresis" horiz-adv-x="545" unicode="ü"/>
<glyph d="M478 487l-156 -487l-65 -197h-116l61 197h-43l-154 487h125l111 -370l112 370h125zM229 539l-44 68q74 46 146 98l48 -74q-88 -58 -150 -92z" glyph-name="yacute" horiz-adv-x="478" unicode="ý"/>
<glyph d="M483 328v-166q-2 -171 -161 -172q-64 0 -130 14v-201l-122 -17v900l122 17v-246q60 40 141 40q135 0 149 -139q1 -15 1 -30zM192 349v-242q60 -13 108 -13q55 0 60 50q1 7 1 15v172q0 56 -48 61q-6 1 -12 1q-57 -1 -109 -44z" glyph-name="thorn" horiz-adv-x="533" unicode="þ"/>
</font>
</defs>
</svg>
